<?xml version="1.0" encoding="UTF-8" standalone="no"?>
<!-- Created with Inkscape (http://www.inkscape.org/) -->

<svg
   xmlns:dc="http://purl.org/dc/elements/1.1/"
   xmlns:cc="http://creativecommons.org/ns#"
   xmlns:rdf="http://www.w3.org/1999/02/22-rdf-syntax-ns#"
   xmlns:svg="http://www.w3.org/2000/svg"
   xmlns="http://www.w3.org/2000/svg"
   xmlns:sodipodi="http://sodipodi.sourceforge.net/DTD/sodipodi-0.dtd"
   xmlns:inkscape="http://www.inkscape.org/namespaces/inkscape"
   width="210mm"
   height="297mm"
   viewBox="0 0 744.09448819 1052.3622047"
   id="svg2"
   version="1.1"
   inkscape:version="0.91 r"
   sodipodi:docname="logo1.svg">
  <defs
     id="defs4" />
  <sodipodi:namedview
     id="base"
     pagecolor="#ffffff"
     bordercolor="#666666"
     borderopacity="1.0"
     inkscape:pageopacity="0.0"
     inkscape:pageshadow="2"
     inkscape:zoom="1.1139404"
     inkscape:cx="367.42676"
     inkscape:cy="526.18111"
     inkscape:document-units="px"
     inkscape:current-layer="layer1"
     showgrid="false"
     inkscape:window-width="1366"
     inkscape:window-height="703"
     inkscape:window-x="0"
     inkscape:window-y="0"
     inkscape:window-maximized="1" />
  <metadata
     id="metadata7">
    <rdf:RDF>
      <cc:Work
         rdf:about="">
        <dc:format>image/svg+xml</dc:format>
        <dc:type
           rdf:resource="http://purl.org/dc/dcmitype/StillImage" />
        <dc:title></dc:title>
      </cc:Work>
    </rdf:RDF>
  </metadata>
  <g
     inkscape:label="Camada 1"
     inkscape:groupmode="layer"
     id="layer1">
    <g
       id="g4570"
       transform="matrix(0.44607946,0,0,0.44607946,625.78347,350.43002)">
      <rect
         rx="19.252628"
         y="428.26709"
         x="-1148.9994"
         height="108.39822"
         width="182.63469"
         id="rect4344"
         style="opacity:1;fill:#ffffff;fill-opacity:1;stroke:#000000;stroke-width:13.75529385;stroke-linecap:butt;stroke-linejoin:round;stroke-miterlimit:4;stroke-dasharray:none;stroke-dashoffset:0;stroke-opacity:1" />
      <rect
         rx="0"
         y="546.02594"
         x="-1079.1031"
         height="35.78289"
         width="36.827747"
         id="rect4348"
         style="opacity:1;fill:#000000;fill-opacity:1;stroke:#000000;stroke-width:9.13472652;stroke-linecap:butt;stroke-linejoin:miter;stroke-miterlimit:4;stroke-dasharray:none;stroke-dashoffset:0;stroke-opacity:1" />
      <path
         inkscape:connector-curvature="0"
         id="path4350"
         d="m -1169.5935,588.53692 204.87989,0 39.57068,58.18424 -206.72897,0 z"
         style="fill:#ffffff;fill-rule:evenodd;stroke:#000000;stroke-width:6.8031497;stroke-linecap:butt;stroke-linejoin:miter;stroke-miterlimit:4;stroke-dasharray:none;stroke-opacity:1" />
      <path
         inkscape:connector-curvature="0"
         id="path4350-1"
         d="m -1146.7177,598.94252 29.9419,0 5.7831,8.50328 -30.2122,0 z"
         style="fill:#000000;fill-rule:evenodd;stroke:#000000;stroke-width:0.99423933;stroke-linecap:butt;stroke-linejoin:miter;stroke-miterlimit:4;stroke-dasharray:none;stroke-opacity:1" />
      <path
         inkscape:connector-curvature="0"
         id="path4350-1-5"
         d="m -1106.6761,598.19266 29.9419,0 5.7831,8.50328 -30.2122,0 z"
         style="fill:#000000;fill-rule:evenodd;stroke:#000000;stroke-width:0.99423933;stroke-linecap:butt;stroke-linejoin:miter;stroke-miterlimit:4;stroke-dasharray:none;stroke-opacity:1" />
      <path
         inkscape:connector-curvature="0"
         id="path4350-1-7"
         d="m -1135.9208,616.93924 29.9419,0 5.7831,8.50328 -30.2122,0 z"
         style="fill:#000000;fill-rule:evenodd;stroke:#000000;stroke-width:0.99423933;stroke-linecap:butt;stroke-linejoin:miter;stroke-miterlimit:4;stroke-dasharray:none;stroke-opacity:1" />
      <path
         inkscape:connector-curvature="0"
         id="path4350-1-4"
         d="m -1095.4281,617.68911 29.9419,0 5.7831,8.50328 -30.2122,0 z"
         style="fill:#000000;fill-rule:evenodd;stroke:#000000;stroke-width:0.99423933;stroke-linecap:butt;stroke-linejoin:miter;stroke-miterlimit:4;stroke-dasharray:none;stroke-opacity:1" />
      <path
         inkscape:connector-curvature="0"
         id="path4350-1-0"
         d="m -1053.4358,616.18938 29.9419,0 5.7831,8.50328 -30.2122,0 z"
         style="fill:#000000;fill-rule:evenodd;stroke:#000000;stroke-width:0.99423933;stroke-linecap:butt;stroke-linejoin:miter;stroke-miterlimit:4;stroke-dasharray:none;stroke-opacity:1" />
      <path
         inkscape:connector-curvature="0"
         id="path4350-1-50"
         d="m -1060.9344,600.44226 29.9419,0 5.7831,8.50328 -30.2122,0 z"
         style="fill:#000000;fill-rule:evenodd;stroke:#000000;stroke-width:0.99423933;stroke-linecap:butt;stroke-linejoin:miter;stroke-miterlimit:4;stroke-dasharray:none;stroke-opacity:1" />
      <path
         inkscape:connector-curvature="0"
         id="path4350-1-1"
         d="m -1017.4424,595.94307 29.94192,0 5.7831,8.50328 -30.21222,0 z"
         style="fill:#000000;fill-rule:evenodd;stroke:#000000;stroke-width:0.99423933;stroke-linecap:butt;stroke-linejoin:miter;stroke-miterlimit:4;stroke-dasharray:none;stroke-opacity:1" />
      <path
         inkscape:connector-curvature="0"
         id="path4350-1-2"
         d="m -1013.6931,614.68965 29.94195,0 5.7831,8.50328 -30.21225,0 z"
         style="fill:#000000;fill-rule:evenodd;stroke:#000000;stroke-width:0.99423933;stroke-linecap:butt;stroke-linejoin:miter;stroke-miterlimit:4;stroke-dasharray:none;stroke-opacity:1" />
      <path
         inkscape:connector-curvature="0"
         id="path4350-1-8"
         d="m -983.69853,628.93706 29.9419,0 5.7831,8.50328 -30.2122,0 z"
         style="fill:#000000;fill-rule:evenodd;stroke:#000000;stroke-width:0.99423933;stroke-linecap:butt;stroke-linejoin:miter;stroke-miterlimit:4;stroke-dasharray:none;stroke-opacity:1" />
      <path
         inkscape:connector-curvature="0"
         id="path4424"
         d="m -957.61245,599.35378 c 0.63466,-0.0997 1.26327,-0.22729 1.90399,-0.29921 0.52741,-0.0592 1.81743,0 2.28478,0 1.1424,0 2.28479,0 3.42718,0 0.44078,0 1.56401,-0.0668 1.90398,0 0.27536,0.0541 0.49233,0.22869 0.7616,0.29921 0.12042,0.0315 0.26726,-0.0446 0.38079,0 0.16056,0.0631 0.22024,0.23614 0.3808,0.29921 0.11353,0.0446 0.25386,0 0.3808,0 0.25386,0.0997 0.52543,0.17551 0.76159,0.29922 0.29872,0.15648 0.46287,0.44194 0.76159,0.59842 0.23617,0.12371 0.52544,0.17551 0.7616,0.29922 0.29872,0.15648 0.421,0.50922 0.76159,0.59842 0.65389,0.17127 0.78518,-0.26215 1.14239,0.29922 0.0568,0.0892 -0.0568,0.21 0,0.29921 0.0803,0.12616 0.30052,0.17306 0.3808,0.29922 0.0568,0.0892 -0.0308,0.20245 0,0.29921 0.0974,0.30598 0.20129,0.61554 0.3808,0.89764 0.18735,0.29444 1.33583,0.90242 1.52319,1.19686 0.0568,0.0892 -0.0568,0.21 0,0.29921 0.0803,0.12616 0.30051,0.17305 0.38079,0.29921 0.0568,0.0892 -0.0401,0.2046 0,0.29922 0.0898,0.21157 0.29104,0.38685 0.3808,0.59842 0.0401,0.0946 -0.0568,0.21001 0,0.29922 0.22848,0.35905 0.91391,0.53858 1.14239,0.89764 0.0568,0.0892 -0.0568,0.21 0,0.29921 0.10169,0.15981 0.94192,0.74012 1.14239,0.89764 0.3808,0.29922 0.7616,0.59843 1.1424,0.89764 0.12693,0.0997 0.22023,0.23614 0.38079,0.29922 0.22706,0.0892 0.53453,-0.0892 0.7616,0 0.32111,0.12616 0.42099,0.50922 0.76159,0.59842 0.24084,0.0631 0.53453,-0.0892 0.76159,0 0.32112,0.12616 0.46287,0.44195 0.7616,0.59843 0.10561,0.0553 0.26038,-0.0315 0.3808,0 0.26926,0.0705 0.49232,0.22869 0.76159,0.29922 0.24084,0.0631 0.52076,-0.0631 0.76159,0 0.26926,0.0705 0.49233,0.22868 0.7616,0.29921 0.12041,0.0315 0.25386,0 0.38079,0 0.51603,0 2.41362,-0.066 2.66558,0 1.68092,0.44026 -1.38349,0.29921 1.14239,0.29921 0.35865,0 1.68737,-0.0567 1.90399,0 0.3406,0.0892 0.44048,0.47227 0.76159,0.59843 0.11294,0.0444 1.91647,0 2.28478,0 0.63467,0 1.26933,0 1.90399,0 0.25387,0 0.50773,0 0.76159,0 0.12694,0 0.26727,0.0446 0.3808,0 0.16056,-0.0631 0.22024,-0.23614 0.3808,-0.29921 0.18733,-0.0736 1.92248,0.0569 2.28478,0 0.3936,-0.0619 0.75298,-0.22272 1.14239,-0.29922 0.47629,-0.0936 1.05698,0.12211 1.52319,0 0.1703,-0.0446 0.22024,-0.23613 0.3808,-0.29921 0.11353,-0.0446 0.25386,0 0.3808,0 0.25386,-0.19948 0.46287,-0.44195 0.76159,-0.59843 0.10561,-0.0553 0.25386,0 0.3808,0 0.12693,0 0.25386,0 0.38079,0 1.35121,0 1.98519,-0.23541 3.04638,0.59843"
         style="fill:none;fill-rule:evenodd;stroke:#000000;stroke-width:5.23164272;stroke-linecap:butt;stroke-linejoin:miter;stroke-miterlimit:4;stroke-dasharray:none;stroke-opacity:1" />
      <path
         inkscape:connector-curvature="0"
         id="path4426"
         d="m -906.09395,611.63066 c -4.65759,0 -0.58088,-0.41667 -2.12132,0.35355 -0.10541,0.0527 -0.24175,-0.0372 -0.35356,0 -0.25,0.0833 -0.45711,0.27023 -0.70711,0.35356 -0.24318,0.0811 -0.85206,-0.1043 -1.06066,0 -0.14907,0.0745 -0.19544,0.30085 -0.35356,0.35355 -0.2236,0.0745 -0.4714,0 -0.7071,0 -0.11786,0 -0.24815,-0.0527 -0.35356,0 -0.14907,0.0745 -0.20448,0.27902 -0.35356,0.35356 -0.10541,0.0527 -0.2357,0 -0.35355,0 -0.2357,0.2357 -0.42976,0.52221 -0.70711,0.70711 -0.0981,0.0654 -0.24175,-0.0373 -0.35355,0 -0.25001,0.0833 -0.45146,0.28964 -0.70711,0.35355 -0.22867,0.0572 -0.47141,0 -0.70711,0 -0.11785,0 -0.24815,-0.0527 -0.35356,0 -0.29814,0.14907 -0.40896,0.55804 -0.7071,0.70711 -0.33334,0.16667 -0.76252,0.12995 -1.06067,0.35356 -0.86125,0.64593 0.10674,0.65373 -0.70711,1.06066 -0.33333,0.16667 -0.7411,0.16181 -1.06066,0.35355 -0.42875,0.25725 -0.70711,0.70711 -1.06067,1.06067 -0.11785,0.11785 -0.2357,0.2357 -0.35355,0.35356 -0.11785,0.11784 -0.27902,0.20448 -0.35356,0.35355 -0.10541,0.21082 0.10541,0.49629 0,0.7071 -0.43688,0.87378 -0.35355,-0.12203 -0.35355,0.70712 0,0.28903 -0.0597,2.29569 0,2.47488 0.0527,0.15811 0.27902,0.20448 0.35355,0.35356 0.10541,0.21081 -0.10541,0.49628 0,0.7071 0.0745,0.14907 0.27902,0.20449 0.35356,0.35356 0.0527,0.10541 -0.0527,0.24814 0,0.35355 0.0745,0.14907 0.27902,0.20448 0.35355,0.35356 0.0527,0.10541 -0.0527,0.24814 0,0.35355 0.0745,0.14908 0.30085,0.19544 0.35356,0.35356 0.51025,1.53075 -0.67589,-0.12995 0.35355,1.41421 0.34683,0.52025 1.06739,0.89398 1.41422,1.41422 0.21531,0.32297 0.30179,0.858 0.70711,1.06067 0.10541,0.0527 0.24814,-0.0527 0.35355,0 0.14908,0.0745 0.23571,0.2357 0.35356,0.35355 0.11785,0.11785 0.2357,0.23571 0.35356,0.35356 0.35355,0.35355 0.7071,0.70711 1.06066,1.06066 0.2357,0.2357 0.42976,0.52221 0.70711,0.70711 0.21926,0.14618 0.48784,0.20738 0.70711,0.35356 0.27735,0.1849 0.40896,0.55803 0.7071,0.7071 0.33334,0.16667 0.72734,0.18689 1.06067,0.35356 0.42427,0.21213 0.6364,0.84853 1.06066,1.06066 0.10541,0.0527 0.24815,-0.0527 0.35356,0 0.3479,0.17396 1.06631,1.24027 1.41422,1.41422 0.1054,0.0527 0.24814,-0.0527 0.35355,0 0.29814,0.14907 0.42976,0.52221 0.70711,0.70711 0.21926,0.14618 0.48785,0.20738 0.70711,0.35355 0.32185,0.21457 0.74729,0.90398 1.06066,1.06067 0.10541,0.0527 0.24175,-0.0372 0.35356,0 0.25,0.0833 0.45711,0.27022 0.70711,0.35355 0.22361,0.0745 0.4835,-0.0745 0.70711,0 2.56094,0.85365 -0.55742,-0.10193 1.06066,0.70711 0.10541,0.0527 0.24815,-0.0527 0.35355,0 0.14908,0.0745 0.20449,0.27902 0.35356,0.35356 0.22222,0.1111 1.192,-0.11111 1.41422,0 0.14907,0.0745 0.2357,0.2357 0.35355,0.35355 0.35356,0 0.71398,-0.0693 1.06067,0 0.2584,0.0517 0.4571,0.27022 0.70711,0.35356 0.1118,0.0373 0.24814,-0.0527 0.35355,0 0.38006,0.19003 0.68061,0.51707 1.06067,0.7071 0.21081,0.10542 0.47844,-0.0572 0.70711,0 0.36155,0.0904 0.69522,0.28047 1.06066,0.35356 0.28944,0.0579 1.58639,-0.0907 1.76777,0 0.14907,0.0745 0.20448,0.27902 0.35355,0.35355 0.1075,0.0538 1.17009,0 1.41423,0 1.06066,0 2.12132,0 3.18199,0 0.58926,0 1.17851,0 1.76777,0 0.11785,0 0.2357,0 0.35356,0 0.11785,0 0.24814,0.0527 0.35355,0 0.14907,-0.0745 0.2357,-0.2357 0.35355,-0.35355 0.11786,-0.11785 0.27902,-0.20448 0.35356,-0.35356 0.0527,-0.1054 -0.0527,-0.24814 0,-0.35355 0.0745,-0.14907 0.2357,-0.2357 0.35355,-0.35355 0.27616,-0.27616 0.85728,-0.75558 1.06067,-1.06067 0.70192,-0.31864 0.13625,-0.9796 0.35355,-1.41421 0.14907,-0.29815 0.52221,-0.42976 0.70711,-0.70712 0.0654,-0.0981 -0.0527,-0.24814 0,-0.35355 0.0745,-0.14907 0.23571,-0.2357 0.35356,-0.35356 0,-0.2357 -0.0745,-0.4835 0,-0.7071 0.0527,-0.15812 0.27902,-0.20449 0.35355,-0.35356 0.0527,-0.10541 0,-0.2357 0,-0.35355 0,-0.11785 0,-0.23571 0,-0.35356 0,-0.41266 -0.069,-1.84549 0,-2.12132 0.0639,-0.25566 0.27022,-0.45711 0.35356,-0.70712 0.0372,-0.1118 0,-0.2357 0,-0.35355 0,-0.2357 0,-0.47141 0,-0.70711 0,-0.58926 0,-1.17851 0,-1.76777 0,-0.2357 0.0745,-0.4835 0,-0.70711 -0.0833,-0.25 -0.27022,-0.45711 -0.35356,-0.70711 -0.0745,-0.22361 0.10541,-0.49629 0,-0.70711 -0.21213,-0.42427 -0.84853,-0.6364 -1.06066,-1.06066 -0.0527,-0.10541 0.0372,-0.24176 0,-0.35356 -0.16667,-0.5 -0.54044,-0.91422 -0.70711,-1.41422 -0.35082,-1.05247 0.83717,0.72543 -0.35356,-1.06066 -0.1849,-0.27735 -0.55803,-0.40897 -0.70711,-0.70711 -0.0527,-0.10541 0.0527,-0.24815 0,-0.35356 -0.0745,-0.14907 -0.2357,-0.2357 -0.35355,-0.35355 -0.11785,-0.11785 -0.2357,-0.2357 -0.35356,-0.35355 -0.58925,-0.58926 -1.17851,-1.17852 -1.76777,-1.76778 -0.35355,-0.35355 -0.70711,-0.7071 -1.06066,-1.06066 -0.2357,-0.23571 -0.42976,-0.52221 -0.70711,-0.70711 -0.17805,-0.77894 -0.72733,-0.18689 -1.06067,-0.35356 -0.14907,-0.0745 -0.2357,-0.2357 -0.35355,-0.35355 -0.2357,-0.2357 -0.42976,-0.52221 -0.70711,-0.70711 -0.0981,-0.0654 -0.24175,0.0372 -0.35355,0 -0.25001,-0.0833 -0.45146,-0.28964 -0.70711,-0.35355 -0.22867,-0.0572 -0.47141,0 -0.70712,0 -0.11785,0 -0.24814,0.0527 -0.35355,0 -0.14907,-0.0745 -0.20448,-0.27902 -0.35355,-0.35356 -0.10541,-0.0527 -0.24175,0.0373 -0.35356,0 -0.25,-0.0833 -0.45711,-0.27022 -0.70711,-0.35356 -0.1118,-0.0372 -0.24175,0.0372 -0.35355,0 -2.56095,-0.85364 0.55742,0.10194 -1.06066,-0.7071 -0.10541,-0.0527 -0.24815,0.0527 -0.35356,0 -0.14907,-0.0745 -0.20448,-0.27902 -0.35355,-0.35356 -0.10542,-0.0527 -0.24815,0.0527 -0.35356,0 -0.14907,-0.0745 -0.19544,-0.30085 -0.35356,-0.35355 -0.2236,-0.0745 -0.4714,0 -0.7071,0 -0.11786,0 -0.24815,0.0527 -0.35356,0 -0.14907,-0.0745 -0.2357,-0.23571 -0.35355,-0.35356 -0.23571,-0.2357 -0.42976,-0.52221 -0.70711,-0.70711 -0.19612,-0.13074 -0.49629,0.10541 -0.70711,0 -0.14907,-0.0745 -0.19186,-0.31313 -0.35355,-0.35355 -0.343,-0.0858 -0.71398,0.0693 -1.06067,0 -0.25841,-0.0517 -0.45711,-0.27022 -0.70711,-0.35356 -0.1118,-0.0372 -0.2357,0 -0.35355,0 -1.23496,0 -1.00247,-0.0145 -2.47489,0.35356 z"
         style="fill:none;fill-rule:evenodd;stroke:#000000;stroke-width:5.47970486;stroke-linecap:butt;stroke-linejoin:miter;stroke-miterlimit:4;stroke-dasharray:none;stroke-opacity:1" />
      <path
         inkscape:connector-curvature="0"
         id="path4428"
         d="m -912.54938,629.10949 c 0.29524,-0.39366 0.63256,-0.75903 0.88573,-1.18098 0.0525,-0.0877 0,-0.97601 0,-1.18098 0,-1.34405 -0.13917,-0.0169 0.29525,-0.88574 0.0871,-0.17428 -0.0851,-1.60126 0,-1.77149 0.12449,-0.24896 0.43608,-0.35888 0.59051,-0.59048 0.0546,-0.082 -0.0311,-0.20189 0,-0.29525 0.0696,-0.20875 0.22564,-0.38172 0.29523,-0.59049 0.0311,-0.0934 -0.0441,-0.20721 0,-0.29524 0.0622,-0.12449 0.23302,-0.17076 0.29525,-0.29525 0.0881,-0.17605 -0.0881,-0.41445 0,-0.5905 0.0622,-0.12449 0.233,-0.17075 0.29525,-0.29525 0.0441,-0.0881 -0.0441,-0.20722 0,-0.29524 0.12448,-0.24897 0.466,-0.34151 0.59048,-0.5905 0.0441,-0.0881 -0.044,-0.20721 0,-0.29524 0.12448,-0.24897 0.43609,-0.35888 0.5905,-0.59048 0.12207,-0.18312 0.1632,-0.41446 0.29525,-0.5905 0.167,-0.2227 0.39365,-0.39367 0.59049,-0.59049 0.0984,-0.0984 0.17076,-0.233 0.29525,-0.29526 0.088,-0.0441 0.19682,0 0.29525,0 0.19682,0 0.40375,0.0622 0.59048,0 0.13204,-0.0441 0.17077,-0.233 0.29525,-0.29524 0.0881,-0.0441 0.20187,0.0311 0.29524,0 2.1386,-0.71286 -0.46549,0.0851 0.88574,-0.59049 0.1742,-0.087 0.68266,0.0677 0.88573,0 0.20878,-0.0695 0.38174,-0.22566 0.5905,-0.29524 0.0933,-0.0311 0.20188,0.0311 0.29525,0 0.20877,-0.0696 0.377,-0.24187 0.5905,-0.29525 0.19095,-0.0479 0.39365,0 0.59049,0 0.59049,0 1.18099,0 1.77146,0 0.19683,0 0.39955,0.0477 0.5905,0 0.30193,-0.0754 0.58382,-0.21976 0.88575,-0.29525 0.19094,-0.0478 0.39365,0 0.59049,0 0.29524,0 0.59049,0 0.88573,0 1.18098,0 2.36198,0 3.54296,0"
         style="fill:none;fill-rule:evenodd;stroke:#000000;stroke-width:4.57598734;stroke-linecap:butt;stroke-linejoin:miter;stroke-miterlimit:4;stroke-dasharray:none;stroke-opacity:1" />
      <path
         sodipodi:open="true"
         d="m -1112.3734,524.89282 a 56.013683,24.764732 0 0 1 56.0137,-24.76473 56.013683,24.764732 0 0 1 56.0136,24.76473"
         sodipodi:end="0"
         sodipodi:start="3.1415927"
         sodipodi:ry="24.764732"
         sodipodi:rx="56.013683"
         sodipodi:cy="524.89282"
         sodipodi:cx="-1056.3597"
         sodipodi:type="arc"
         id="path4430"
         style="opacity:1;fill:#ffffff;fill-opacity:1;stroke:#000000;stroke-width:7.90754461;stroke-linecap:butt;stroke-linejoin:miter;stroke-miterlimit:4;stroke-dasharray:none;stroke-dashoffset:0;stroke-opacity:1" />
      <path
         inkscape:connector-curvature="0"
         id="path4447"
         d="m -1130.4575,484.48231 39.7675,-35.52563"
         style="fill:none;fill-rule:evenodd;stroke:#000000;stroke-width:8.07874012;stroke-linecap:butt;stroke-linejoin:miter;stroke-miterlimit:4;stroke-dasharray:none;stroke-opacity:1" />
      <path
         inkscape:connector-curvature="0"
         id="path4449"
         d="m -1131.5179,445.77528 c 34.9954,36.05586 33.4047,36.05586 33.4047,36.05586"
         style="fill:none;fill-rule:evenodd;stroke:#000000;stroke-width:8.07874012;stroke-linecap:butt;stroke-linejoin:miter;stroke-miterlimit:4;stroke-dasharray:none;stroke-opacity:1" />
      <path
         sodipodi:nodetypes="cc"
         inkscape:connector-curvature="0"
         id="path4451"
         d="m -1055.1643,464.86368 c 22.8484,-23.87005 41.6372,-17.29254 58.85588,1.06046"
         style="fill:none;fill-rule:evenodd;stroke:#000000;stroke-width:11.62204742;stroke-linecap:butt;stroke-linejoin:miter;stroke-miterlimit:4;stroke-dasharray:none;stroke-opacity:1" />
    </g>
    <g
       id="g4591"
       transform="matrix(0.44607946,0,0,0.44607946,1264.6048,221.284)">
      <rect
         rx="19.252628"
         y="431.96677"
         x="-1684.0046"
         height="108.39822"
         width="182.63469"
         id="rect4344-5"
         style="opacity:1;fill:#ffffff;fill-opacity:1;stroke:#000000;stroke-width:13.75529385;stroke-linecap:butt;stroke-linejoin:round;stroke-miterlimit:4;stroke-dasharray:none;stroke-dashoffset:0;stroke-opacity:1" />
      <rect
         rx="0"
         y="549.72565"
         x="-1614.1084"
         height="35.78289"
         width="36.827747"
         id="rect4348-6"
         style="opacity:1;fill:#000000;fill-opacity:1;stroke:#000000;stroke-width:9.13472652;stroke-linecap:butt;stroke-linejoin:miter;stroke-miterlimit:4;stroke-dasharray:none;stroke-dashoffset:0;stroke-opacity:1" />
      <path
         inkscape:connector-curvature="0"
         id="path4350-3"
         d="m -1704.5987,592.23663 204.8799,0 39.5707,58.18424 -206.729,0 z"
         style="fill:#ffffff;fill-rule:evenodd;stroke:#000000;stroke-width:6.8031497;stroke-linecap:butt;stroke-linejoin:miter;stroke-miterlimit:4;stroke-dasharray:none;stroke-opacity:1" />
      <path
         inkscape:connector-curvature="0"
         id="path4350-1-74"
         d="m -1681.7229,602.64223 29.9419,0 5.7831,8.50328 -30.2122,0 z"
         style="fill:#000000;fill-rule:evenodd;stroke:#000000;stroke-width:0.99423933;stroke-linecap:butt;stroke-linejoin:miter;stroke-miterlimit:4;stroke-dasharray:none;stroke-opacity:1" />
      <path
         inkscape:connector-curvature="0"
         id="path4350-1-5-0"
         d="m -1641.6813,601.89237 29.9419,0 5.7831,8.50328 -30.2122,0 z"
         style="fill:#000000;fill-rule:evenodd;stroke:#000000;stroke-width:0.99423933;stroke-linecap:butt;stroke-linejoin:miter;stroke-miterlimit:4;stroke-dasharray:none;stroke-opacity:1" />
      <path
         inkscape:connector-curvature="0"
         id="path4350-1-7-6"
         d="m -1670.926,620.63895 29.9419,0 5.7831,8.50328 -30.2122,0 z"
         style="fill:#000000;fill-rule:evenodd;stroke:#000000;stroke-width:0.99423933;stroke-linecap:butt;stroke-linejoin:miter;stroke-miterlimit:4;stroke-dasharray:none;stroke-opacity:1" />
      <path
         inkscape:connector-curvature="0"
         id="path4350-1-4-5"
         d="m -1630.4333,621.38882 29.9419,0 5.7831,8.50328 -30.2122,0 z"
         style="fill:#000000;fill-rule:evenodd;stroke:#000000;stroke-width:0.99423933;stroke-linecap:butt;stroke-linejoin:miter;stroke-miterlimit:4;stroke-dasharray:none;stroke-opacity:1" />
      <path
         inkscape:connector-curvature="0"
         id="path4350-1-0-7"
         d="m -1588.441,619.88909 29.9419,0 5.7831,8.50328 -30.2122,0 z"
         style="fill:#000000;fill-rule:evenodd;stroke:#000000;stroke-width:0.99423933;stroke-linecap:butt;stroke-linejoin:miter;stroke-miterlimit:4;stroke-dasharray:none;stroke-opacity:1" />
      <path
         inkscape:connector-curvature="0"
         id="path4350-1-50-1"
         d="m -1595.9396,604.14197 29.9419,0 5.7831,8.50328 -30.2122,0 z"
         style="fill:#000000;fill-rule:evenodd;stroke:#000000;stroke-width:0.99423933;stroke-linecap:butt;stroke-linejoin:miter;stroke-miterlimit:4;stroke-dasharray:none;stroke-opacity:1" />
      <path
         inkscape:connector-curvature="0"
         id="path4350-1-1-2"
         d="m -1552.4476,599.64278 29.9419,0 5.7831,8.50328 -30.2122,0 z"
         style="fill:#000000;fill-rule:evenodd;stroke:#000000;stroke-width:0.99423933;stroke-linecap:butt;stroke-linejoin:miter;stroke-miterlimit:4;stroke-dasharray:none;stroke-opacity:1" />
      <path
         inkscape:connector-curvature="0"
         id="path4350-1-2-3"
         d="m -1548.6983,618.38936 29.9419,0 5.7831,8.50328 -30.2122,0 z"
         style="fill:#000000;fill-rule:evenodd;stroke:#000000;stroke-width:0.99423933;stroke-linecap:butt;stroke-linejoin:miter;stroke-miterlimit:4;stroke-dasharray:none;stroke-opacity:1" />
      <path
         inkscape:connector-curvature="0"
         id="path4350-1-8-0"
         d="m -1518.7037,632.63677 29.9419,0 5.7831,8.50328 -30.2122,0 z"
         style="fill:#000000;fill-rule:evenodd;stroke:#000000;stroke-width:0.99423933;stroke-linecap:butt;stroke-linejoin:miter;stroke-miterlimit:4;stroke-dasharray:none;stroke-opacity:1" />
      <path
         inkscape:connector-curvature="0"
         id="path4424-8"
         d="m -1492.6177,603.05349 c 0.6347,-0.0997 1.2633,-0.22729 1.904,-0.29921 0.5274,-0.0592 1.8175,0 2.2848,0 1.1424,0 2.2848,0 3.4272,0 0.4408,0 1.564,-0.0668 1.904,0 0.2753,0.0541 0.4923,0.22869 0.7616,0.29921 0.1204,0.0315 0.2672,-0.0446 0.3808,0 0.1605,0.0631 0.2202,0.23614 0.3808,0.29921 0.1135,0.0446 0.2538,0 0.3808,0 0.2538,0.0997 0.5254,0.17551 0.7616,0.29922 0.2987,0.15648 0.4628,0.44194 0.7615,0.59842 0.2362,0.12371 0.5255,0.17551 0.7616,0.29922 0.2988,0.15648 0.421,0.50922 0.7616,0.59842 0.6539,0.17127 0.7852,-0.26215 1.1424,0.29922 0.057,0.0892 -0.057,0.21 0,0.29921 0.08,0.12616 0.3005,0.17306 0.3808,0.29922 0.057,0.0892 -0.031,0.20245 0,0.29921 0.097,0.30598 0.2013,0.61554 0.3808,0.89764 0.1874,0.29444 1.3359,0.90242 1.5232,1.19686 0.057,0.0892 -0.057,0.21 0,0.29921 0.08,0.12616 0.3005,0.17305 0.3808,0.29921 0.057,0.0892 -0.04,0.2046 0,0.29922 0.09,0.21157 0.291,0.38685 0.3808,0.59842 0.04,0.0946 -0.057,0.21001 0,0.29922 0.2285,0.35905 0.9139,0.53858 1.1424,0.89764 0.057,0.0892 -0.057,0.21 0,0.29921 0.1017,0.15981 0.9419,0.74012 1.1424,0.89764 0.3808,0.29922 0.7616,0.59843 1.1424,0.89764 0.1269,0.0997 0.2202,0.23614 0.3808,0.29922 0.227,0.0892 0.5345,-0.0892 0.7616,0 0.3211,0.12616 0.421,0.50922 0.7616,0.59842 0.2408,0.0631 0.5345,-0.0892 0.7616,0 0.3211,0.12616 0.4628,0.44195 0.7616,0.59843 0.1056,0.0553 0.2603,-0.0315 0.3808,0 0.2692,0.0705 0.4923,0.22869 0.7615,0.29922 0.2409,0.0631 0.5208,-0.0631 0.7616,0 0.2693,0.0705 0.4924,0.22868 0.7616,0.29921 0.1204,0.0315 0.2539,0 0.3808,0 0.5161,0 2.4136,-0.066 2.6656,0 1.6809,0.44026 -1.3835,0.29921 1.1424,0.29921 0.3586,0 1.6874,-0.0567 1.904,0 0.3406,0.0892 0.4405,0.47227 0.7616,0.59843 0.1129,0.0444 1.9164,0 2.2848,0 0.6346,0 1.2693,0 1.9039,0 0.2539,0 0.5078,0 0.7616,0 0.127,0 0.2673,0.0446 0.3808,0 0.1606,-0.0631 0.2203,-0.23614 0.3808,-0.29921 0.1874,-0.0736 1.9225,0.0569 2.2848,0 0.3936,-0.0619 0.753,-0.22272 1.1424,-0.29922 0.4763,-0.0936 1.057,0.12211 1.5232,0 0.1703,-0.0446 0.2202,-0.23613 0.3808,-0.29921 0.1135,-0.0446 0.2539,0 0.3808,0 0.2539,-0.19948 0.4629,-0.44195 0.7616,-0.59843 0.1056,-0.0553 0.2538,0 0.3808,0 0.1269,0 0.2538,0 0.3808,0 1.3512,0 1.9852,-0.23541 3.0464,0.59843"
         style="fill:none;fill-rule:evenodd;stroke:#000000;stroke-width:5.23164272;stroke-linecap:butt;stroke-linejoin:miter;stroke-miterlimit:4;stroke-dasharray:none;stroke-opacity:1" />
      <path
         inkscape:connector-curvature="0"
         id="path4426-9"
         d="m -1441.0992,615.33037 c -4.6575,0 -0.5808,-0.41667 -2.1213,0.35355 -0.1054,0.0527 -0.2417,-0.0372 -0.3535,0 -0.25,0.0833 -0.4571,0.27023 -0.7071,0.35356 -0.2432,0.0811 -0.8521,-0.1043 -1.0607,0 -0.1491,0.0745 -0.1954,0.30085 -0.3536,0.35355 -0.2236,0.0745 -0.4714,0 -0.7071,0 -0.1178,0 -0.2481,-0.0527 -0.3535,0 -0.1491,0.0745 -0.2045,0.27902 -0.3536,0.35356 -0.1054,0.0527 -0.2357,0 -0.3535,0 -0.2357,0.2357 -0.4298,0.52221 -0.7071,0.70711 -0.098,0.0654 -0.2418,-0.0373 -0.3536,0 -0.25,0.0833 -0.4515,0.28964 -0.7071,0.35355 -0.2287,0.0572 -0.4714,0 -0.7071,0 -0.1179,0 -0.2482,-0.0527 -0.3536,0 -0.2981,0.14907 -0.4089,0.55804 -0.7071,0.70711 -0.3333,0.16667 -0.7625,0.12995 -1.0606,0.35356 -0.8613,0.64593 0.1067,0.65373 -0.7072,1.06066 -0.3333,0.16667 -0.7411,0.16181 -1.0606,0.35355 -0.4288,0.25725 -0.7071,0.70711 -1.0607,1.06067 -0.1178,0.11785 -0.2357,0.2357 -0.3535,0.35356 -0.1179,0.11784 -0.2791,0.20448 -0.3536,0.35355 -0.1054,0.21082 0.1054,0.49629 0,0.7071 -0.4369,0.87378 -0.3535,-0.12203 -0.3535,0.70712 0,0.28903 -0.06,2.29569 0,2.47488 0.053,0.15811 0.279,0.20448 0.3535,0.35356 0.1054,0.21081 -0.1054,0.49628 0,0.7071 0.074,0.14907 0.279,0.20449 0.3536,0.35356 0.053,0.10541 -0.053,0.24814 0,0.35355 0.074,0.14907 0.279,0.20448 0.3535,0.35356 0.053,0.10541 -0.053,0.24814 0,0.35355 0.074,0.14908 0.3009,0.19544 0.3536,0.35356 0.5102,1.53075 -0.6759,-0.12995 0.3535,1.41421 0.3469,0.52025 1.0674,0.89398 1.4142,1.41422 0.2154,0.32297 0.3018,0.858 0.7072,1.06067 0.1054,0.0527 0.2481,-0.0527 0.3535,0 0.1491,0.0745 0.2357,0.2357 0.3536,0.35355 0.1178,0.11785 0.2357,0.23571 0.3535,0.35356 0.3536,0.35355 0.7071,0.70711 1.0607,1.06066 0.2357,0.2357 0.4297,0.52221 0.7071,0.70711 0.2193,0.14618 0.4878,0.20738 0.7071,0.35356 0.2774,0.1849 0.409,0.55803 0.7071,0.7071 0.3333,0.16667 0.7273,0.18689 1.0607,0.35356 0.4242,0.21213 0.6364,0.84853 1.0606,1.06066 0.1054,0.0527 0.2482,-0.0527 0.3536,0 0.3479,0.17396 1.0663,1.24027 1.4142,1.41422 0.1054,0.0527 0.2482,-0.0527 0.3536,0 0.2981,0.14907 0.4297,0.52221 0.7071,0.70711 0.2192,0.14618 0.4878,0.20738 0.7071,0.35355 0.3218,0.21457 0.7473,0.90398 1.0606,1.06067 0.1055,0.0527 0.2418,-0.0372 0.3536,0 0.25,0.0833 0.4571,0.27022 0.7071,0.35355 0.2236,0.0745 0.4835,-0.0745 0.7071,0 2.561,0.85365 -0.5574,-0.10193 1.0607,0.70711 0.1054,0.0527 0.2481,-0.0527 0.3535,0 0.1491,0.0745 0.2045,0.27902 0.3536,0.35356 0.2222,0.1111 1.192,-0.11111 1.4142,0 0.1491,0.0745 0.2357,0.2357 0.3536,0.35355 0.3535,0 0.7139,-0.0693 1.0606,0 0.2584,0.0517 0.4571,0.27022 0.7071,0.35356 0.1118,0.0373 0.2482,-0.0527 0.3536,0 0.3801,0.19003 0.6806,0.51707 1.0607,0.7071 0.2108,0.10542 0.4784,-0.0572 0.7071,0 0.3615,0.0904 0.6952,0.28047 1.0606,0.35356 0.2895,0.0579 1.5864,-0.0907 1.7678,0 0.1491,0.0745 0.2045,0.27902 0.3536,0.35355 0.1075,0.0538 1.17,0 1.4142,0 1.0606,0 2.1213,0 3.182,0 0.5892,0 1.1785,0 1.7677,0 0.1179,0 0.2357,0 0.3536,0 0.1179,0 0.2481,0.0527 0.3536,0 0.149,-0.0745 0.2357,-0.2357 0.3535,-0.35355 0.1179,-0.11785 0.279,-0.20448 0.3536,-0.35356 0.053,-0.1054 -0.053,-0.24814 0,-0.35355 0.074,-0.14907 0.2357,-0.2357 0.3535,-0.35355 0.2762,-0.27616 0.8573,-0.75558 1.0607,-1.06067 0.7019,-0.31864 0.1362,-0.9796 0.3535,-1.41421 0.1491,-0.29815 0.5222,-0.42976 0.7071,-0.70712 0.065,-0.0981 -0.053,-0.24814 0,-0.35355 0.074,-0.14907 0.2358,-0.2357 0.3536,-0.35356 0,-0.2357 -0.075,-0.4835 0,-0.7071 0.053,-0.15812 0.279,-0.20449 0.3536,-0.35356 0.053,-0.10541 0,-0.2357 0,-0.35355 0,-0.11785 0,-0.23571 0,-0.35356 0,-0.41266 -0.069,-1.84549 0,-2.12132 0.064,-0.25566 0.2702,-0.45711 0.3535,-0.70712 0.037,-0.1118 0,-0.2357 0,-0.35355 0,-0.2357 0,-0.47141 0,-0.70711 0,-0.58926 0,-1.17851 0,-1.76777 0,-0.2357 0.075,-0.4835 0,-0.70711 -0.083,-0.25 -0.2702,-0.45711 -0.3535,-0.70711 -0.074,-0.22361 0.1054,-0.49629 0,-0.70711 -0.2122,-0.42427 -0.8486,-0.6364 -1.0607,-1.06066 -0.053,-0.10541 0.037,-0.24176 0,-0.35356 -0.1667,-0.5 -0.5404,-0.91422 -0.7071,-1.41422 -0.3508,-1.05247 0.8372,0.72543 -0.3536,-1.06066 -0.1849,-0.27735 -0.558,-0.40897 -0.7071,-0.70711 -0.053,-0.10541 0.053,-0.24815 0,-0.35356 -0.074,-0.14907 -0.2357,-0.2357 -0.3535,-0.35355 -0.1179,-0.11785 -0.2357,-0.2357 -0.3536,-0.35355 -0.5892,-0.58926 -1.1785,-1.17852 -1.7678,-1.76778 -0.3535,-0.35355 -0.7071,-0.7071 -1.0606,-1.06066 -0.2357,-0.23571 -0.4298,-0.52221 -0.7071,-0.70711 -0.1781,-0.77894 -0.7274,-0.18689 -1.0607,-0.35356 -0.1491,-0.0745 -0.2357,-0.2357 -0.3536,-0.35355 -0.2357,-0.2357 -0.4297,-0.52221 -0.7071,-0.70711 -0.098,-0.0654 -0.2417,0.0372 -0.3535,0 -0.25,-0.0833 -0.4515,-0.28964 -0.7071,-0.35355 -0.2287,-0.0572 -0.4714,0 -0.7071,0 -0.1179,0 -0.2482,0.0527 -0.3536,0 -0.1491,-0.0745 -0.2045,-0.27902 -0.3535,-0.35356 -0.1055,-0.0527 -0.2418,0.0373 -0.3536,0 -0.25,-0.0833 -0.4571,-0.27022 -0.7071,-0.35356 -0.1118,-0.0372 -0.2418,0.0372 -0.3536,0 -2.5609,-0.85364 0.5575,0.10194 -1.0606,-0.7071 -0.1054,-0.0527 -0.2482,0.0527 -0.3536,0 -0.1491,-0.0745 -0.2045,-0.27902 -0.3535,-0.35356 -0.1055,-0.0527 -0.2482,0.0527 -0.3536,0 -0.1491,-0.0745 -0.1954,-0.30085 -0.3536,-0.35355 -0.2236,-0.0745 -0.4714,0 -0.7071,0 -0.1178,0 -0.2481,0.0527 -0.3535,0 -0.1491,-0.0745 -0.2357,-0.23571 -0.3536,-0.35356 -0.2357,-0.2357 -0.4297,-0.52221 -0.7071,-0.70711 -0.1961,-0.13074 -0.4963,0.10541 -0.7071,0 -0.1491,-0.0745 -0.1918,-0.31313 -0.3535,-0.35355 -0.343,-0.0858 -0.714,0.0693 -1.0607,0 -0.2584,-0.0517 -0.4571,-0.27022 -0.7071,-0.35356 -0.1118,-0.0372 -0.2357,0 -0.3536,0 -1.2349,0 -1.0024,-0.0145 -2.4749,0.35356 z"
         style="fill:none;fill-rule:evenodd;stroke:#000000;stroke-width:5.47970486;stroke-linecap:butt;stroke-linejoin:miter;stroke-miterlimit:4;stroke-dasharray:none;stroke-opacity:1" />
      <path
         inkscape:connector-curvature="0"
         id="path4428-1"
         d="m -1447.5546,632.8092 c 0.2953,-0.39366 0.6326,-0.75903 0.8857,-1.18098 0.052,-0.0877 0,-0.97601 0,-1.18098 0,-1.34405 -0.1391,-0.0169 0.2953,-0.88574 0.087,-0.17428 -0.085,-1.60126 0,-1.77149 0.1245,-0.24896 0.4361,-0.35888 0.5905,-0.59048 0.055,-0.082 -0.031,-0.20189 0,-0.29525 0.07,-0.20875 0.2256,-0.38172 0.2952,-0.59049 0.031,-0.0934 -0.044,-0.20721 0,-0.29524 0.062,-0.12449 0.2331,-0.17076 0.2953,-0.29525 0.088,-0.17605 -0.088,-0.41445 0,-0.5905 0.062,-0.12449 0.233,-0.17075 0.2952,-0.29525 0.044,-0.0881 -0.044,-0.20722 0,-0.29524 0.1245,-0.24897 0.466,-0.34151 0.5905,-0.5905 0.044,-0.0881 -0.044,-0.20721 0,-0.29524 0.1245,-0.24897 0.4361,-0.35888 0.5905,-0.59048 0.1221,-0.18312 0.1632,-0.41446 0.2953,-0.5905 0.167,-0.2227 0.3936,-0.39367 0.5905,-0.59049 0.098,-0.0984 0.1707,-0.233 0.2952,-0.29526 0.088,-0.0441 0.1968,0 0.2953,0 0.1968,0 0.4037,0.0622 0.5904,0 0.1321,-0.0441 0.1708,-0.233 0.2953,-0.29524 0.088,-0.0441 0.2019,0.0311 0.2952,0 2.1386,-0.71286 -0.4655,0.0851 0.8858,-0.59049 0.1742,-0.087 0.6826,0.0677 0.8857,0 0.2088,-0.0695 0.3817,-0.22566 0.5905,-0.29524 0.093,-0.0311 0.2019,0.0311 0.2952,0 0.2088,-0.0696 0.377,-0.24187 0.5905,-0.29525 0.191,-0.0479 0.3937,0 0.5905,0 0.5905,0 1.181,0 1.7715,0 0.1968,0 0.3995,0.0477 0.5905,0 0.3019,-0.0754 0.5838,-0.21976 0.8857,-0.29525 0.191,-0.0478 0.3937,0 0.5905,0 0.2953,0 0.5905,0 0.8858,0 1.1809,0 2.3619,0 3.5429,0"
         style="fill:none;fill-rule:evenodd;stroke:#000000;stroke-width:4.57598734;stroke-linecap:butt;stroke-linejoin:miter;stroke-miterlimit:4;stroke-dasharray:none;stroke-opacity:1" />
      <path
         transform="scale(-1,-1)"
         sodipodi:open="true"
         d="m 1535.3513,-495.10193 a 56.013683,24.764732 0 0 1 56.0137,-24.76473 56.013683,24.764732 0 0 1 56.0137,24.76473"
         sodipodi:end="0"
         sodipodi:start="3.1415927"
         sodipodi:ry="24.764732"
         sodipodi:rx="56.013683"
         sodipodi:cy="-495.10193"
         sodipodi:cx="1591.365"
         sodipodi:type="arc"
         id="path4430-2"
         style="opacity:1;fill:#ffffff;fill-opacity:1;stroke:#000000;stroke-width:7.90754461;stroke-linecap:butt;stroke-linejoin:miter;stroke-miterlimit:4;stroke-dasharray:none;stroke-dashoffset:0;stroke-opacity:1" />
      <ellipse
         ry="12.747674"
         rx="20.626169"
         cy="465.96921"
         cx="-1636.5714"
         id="path4522"
         style="opacity:1;fill:#ffffff;fill-opacity:1;stroke:#000000;stroke-width:6.37795258;stroke-linecap:butt;stroke-linejoin:miter;stroke-miterlimit:4;stroke-dasharray:none;stroke-dashoffset:0;stroke-opacity:1" />
      <ellipse
         ry="12.747674"
         rx="20.626169"
         cy="464.46948"
         cx="-1549.2173"
         id="path4522-3"
         style="opacity:1;fill:#ffffff;fill-opacity:1;stroke:#000000;stroke-width:6.37795258;stroke-linecap:butt;stroke-linejoin:miter;stroke-miterlimit:4;stroke-dasharray:none;stroke-dashoffset:0;stroke-opacity:1" />
      <path
         inkscape:connector-curvature="0"
         id="path4539"
         d="m -1597.6478,473.5432 11.9978,19.49645 -17.9967,0"
         style="fill:none;fill-rule:evenodd;stroke:#000000;stroke-width:4.53543329;stroke-linecap:butt;stroke-linejoin:miter;stroke-miterlimit:4;stroke-dasharray:none;stroke-opacity:1" />
    </g>
    <path
       style="fill:#000000;fill-rule:evenodd;stroke:#008000;stroke-width:0.43183288px;stroke-linecap:butt;stroke-linejoin:miter;stroke-opacity:1"
       d="m 437.22902,508.77444 19.75273,-11.98118 45.65799,82.89679 c 7.72536,14.02617 5.60804,28.09388 -0.9714,39.5055 -6.19517,10.74506 -20.98514,19.48581 -31.73394,19.42893 l -61.20117,-0.32381 -0.32378,26.55288 -26.22906,-37.56261 26.55284,-37.23879 -0.32378,26.55288 50.19141,0.32381 c 7.80772,0.0504 17.05576,-3.29127 21.69563,-9.71446 3.74831,-5.189 5.56905,-12.7137 1.94291,-19.10512 z"
       id="path4189"
       inkscape:connector-curvature="0"
       sodipodi:nodetypes="ccsascccccsasc" />
    <path
       style="fill:#000000;fill-rule:evenodd;stroke:#008000;stroke-width:0.43183288px;stroke-linecap:butt;stroke-linejoin:miter;stroke-opacity:1"
       d="m 369.21621,616.97547 0.49958,23.09698 -94.61968,-1.90741 c -16.00973,-0.32274 -27.13405,-9.19027 -33.72705,-20.59405 -6.20795,-10.73768 -6.38267,-27.91653 -0.95902,-37.19685 l 30.88102,-52.83984 -22.83355,-13.55687 45.64469,-3.93373 18.97331,41.61486 -22.83355,-13.55687 -25.37614,43.30513 c -3.94752,6.73651 -5.67757,16.41637 -2.43485,23.64621 2.61963,5.84064 8.22586,11.17979 15.57405,11.23516 z"
       id="path4189-4"
       inkscape:connector-curvature="0"
       sodipodi:nodetypes="ccsascccccsasc" />
    <path
       style="fill:#000000;fill-rule:evenodd;stroke:#008000;stroke-width:0.43183288px;stroke-linecap:butt;stroke-linejoin:miter;stroke-opacity:1"
       d="m 308.86359,498.06659 -20.25236,-11.11579 48.96173,-80.98938 c 8.28433,-13.70343 21.52601,-18.90361 34.69846,-18.91145 12.40311,-0.007 27.36776,8.43072 32.69295,17.76792 l 30.32011,53.16365 23.15738,-12.99601 -19.41564,41.49634 -45.52615,-4.37607 23.15734,-12.99601 -24.81528,-43.62894 c -3.86024,-6.78689 -11.37819,-13.12511 -19.26078,-13.93175 -6.36794,-0.65165 -13.7949,1.53391 -17.51696,7.86997 z"
       id="path4189-7"
       inkscape:connector-curvature="0"
       sodipodi:nodetypes="ccsascccccsasc" />
    <text
       xml:space="preserve"
       style="font-style:normal;font-weight:normal;font-size:17.27331543px;line-height:125%;font-family:sans-serif;text-align:center;letter-spacing:0px;word-spacing:0px;text-anchor:middle;fill:#000000;fill-opacity:1;stroke:none;stroke-width:1px;stroke-linecap:butt;stroke-linejoin:miter;stroke-opacity:1"
       x="370.64749"
       y="452.29138"
       id="text4212"
       sodipodi:linespacing="125%"><tspan
         sodipodi:role="line"
         id="tspan4214"
         x="370.64749"
         y="452.29138"
         style="font-size:25.90997314px;stroke:#000000">10</tspan><tspan
         sodipodi:role="line"
         x="370.64749"
         y="484.67883"
         id="tspan4216"
         style="font-size:25.90997314px;stroke:#000000">01</tspan><tspan
         sodipodi:role="line"
         x="370.64749"
         y="517.06628"
         id="tspan4218"
         style="font-size:25.90997314px;stroke:#000000">1010</tspan><tspan
         sodipodi:role="line"
         x="370.64749"
         y="549.4538"
         id="tspan4222"
         style="font-size:25.90997314px;stroke:#000000">10100</tspan><tspan
         sodipodi:role="line"
         x="370.64749"
         y="581.84125"
         id="tspan4230"
         style="font-size:25.90997314px;stroke:#000000">10010110</tspan></text>
    <path
       style="opacity:1;fill:none;fill-opacity:1;stroke:#000000;stroke-width:32.56028748;stroke-linecap:butt;stroke-linejoin:round;stroke-miterlimit:4;stroke-dasharray:none;stroke-dashoffset:0;stroke-opacity:1"
       id="path4253-6"
       sodipodi:type="arc"
       sodipodi:cx="-372.23792"
       sodipodi:cy="527.21277"
       sodipodi:rx="219.06589"
       sodipodi:ry="219.06589"
       sodipodi:start="4.0142573"
       sodipodi:end="0"
       d="m -513.05075,359.39856 a 219.06589,219.06589 0 0 1 233.39408,-30.72691 219.06589,219.06589 0 0 1 126.48464,198.54112"
       sodipodi:open="true"
       transform="scale(-1,1)" />
    <path
       sodipodi:type="star"
       style="opacity:1;fill:#000000;fill-opacity:1;stroke:#000000;stroke-width:29.19988632;stroke-linecap:butt;stroke-linejoin:miter;stroke-miterlimit:4;stroke-dasharray:none;stroke-dashoffset:0;stroke-opacity:1"
       id="path4270-3"
       sodipodi:sides="3"
       sodipodi:cx="-2099.906"
       sodipodi:cy="-96.41259"
       sodipodi:r1="138.71243"
       sodipodi:r2="41.370705"
       sodipodi:arg1="0.65042141"
       sodipodi:arg2="1.697619"
       inkscape:flatsided="true"
       inkscape:rounded="0"
       inkscape:randomized="0"
       d="m -1989.5147,-12.419184 -238.3274,-30.388409 145.4809,-191.203397 z"
       inkscape:transform-center-x="-7.6740824"
       inkscape:transform-center-y="-10.921039"
       transform="matrix(-0.21791367,-0.07754276,-0.07754276,0.21791367,61.452746,228.59803)" />
    <path
       style="opacity:1;fill:none;fill-opacity:1;stroke:#000000;stroke-width:32.56028748;stroke-linecap:butt;stroke-linejoin:round;stroke-miterlimit:4;stroke-dasharray:none;stroke-dashoffset:0;stroke-opacity:1"
       id="path4253-3-4"
       sodipodi:type="arc"
       sodipodi:cx="376.3653"
       sodipodi:cy="-521.93317"
       sodipodi:rx="219.06589"
       sodipodi:ry="219.06589"
       sodipodi:start="4.0142573"
       sodipodi:end="0"
       d="m 235.55246,-689.74738 a 219.06589,219.06589 0 0 1 233.39408,-30.72691 219.06589,219.06589 0 0 1 126.48464,198.54112"
       sodipodi:open="true"
       transform="matrix(0.99996306,0.00859526,0.00859526,-0.99996306,0,0)" />
    <path
       sodipodi:type="star"
       style="opacity:1;fill:#000000;fill-opacity:1;stroke:#000000;stroke-width:29.19988632;stroke-linecap:butt;stroke-linejoin:miter;stroke-miterlimit:4;stroke-dasharray:none;stroke-dashoffset:0;stroke-opacity:1"
       id="path4270-8-3"
       sodipodi:sides="3"
       sodipodi:cx="-2099.906"
       sodipodi:cy="-96.41259"
       sodipodi:r1="138.71243"
       sodipodi:r2="41.370705"
       sodipodi:arg1="0.65042141"
       sodipodi:arg2="1.697619"
       inkscape:flatsided="true"
       inkscape:rounded="0"
       inkscape:randomized="0"
       d="m -1989.5147,-12.419184 -238.3274,-30.388409 145.4809,-191.203397 z"
       inkscape:transform-center-x="-7.6740824"
       inkscape:transform-center-y="-10.921039"
       transform="matrix(0.21723912,0.07941292,0.07941292,-0.21723912,680.07224,826.42385)" />
  </g>
</svg>
