<?xml version="1.0" encoding="UTF-8" standalone="no"?>
<!-- Created with Inkscape (http://www.inkscape.org/) -->

<svg
   xmlns:dc="http://purl.org/dc/elements/1.1/"
   xmlns:cc="http://creativecommons.org/ns#"
   xmlns:rdf="http://www.w3.org/1999/02/22-rdf-syntax-ns#"
   xmlns:svg="http://www.w3.org/2000/svg"
   xmlns="http://www.w3.org/2000/svg"
   xmlns:sodipodi="http://sodipodi.sourceforge.net/DTD/sodipodi-0.dtd"
   xmlns:inkscape="http://www.inkscape.org/namespaces/inkscape"
   version="1.1"
   id="svg2"
   xml:space="preserve"
   width="1122.5197"
   height="793.70074"
   viewBox="0 0 1122.5197 793.70074"
   sodipodi:docname="organograma.svg"
   inkscape:version="0.92.3 (2405546, 2018-03-11)"><metadata
     id="metadata8"><rdf:RDF><cc:Work
         rdf:about=""><dc:format>image/svg+xml</dc:format><dc:type
           rdf:resource="http://purl.org/dc/dcmitype/StillImage" /><dc:title></dc:title></cc:Work></rdf:RDF></metadata><defs
     id="defs6" /><sodipodi:namedview
     pagecolor="#ffffff"
     bordercolor="#666666"
     borderopacity="1"
     objecttolerance="10"
     gridtolerance="10"
     guidetolerance="10"
     inkscape:pageopacity="0"
     inkscape:pageshadow="2"
     inkscape:window-width="1920"
     inkscape:window-height="1017"
     id="namedview4"
     showgrid="false"
     inkscape:zoom="0.84100816"
     inkscape:cx="538.31564"
     inkscape:cy="376.23501"
     inkscape:window-x="0"
     inkscape:window-y="32"
     inkscape:window-maximized="1"
     inkscape:current-layer="g10" /><g
     id="g10"
     inkscape:groupmode="layer"
     inkscape:label="organograma"
     transform="matrix(1.3333333,0,0,1.3333333,0,2.4509186e-5)"><g
       id="g1151"
       transform="matrix(1.4515744,0,0,1.2378745,-15.201873,-69.701711)"><g
         id="g14"
         transform="scale(1,0.985386)"><path
           d="M 228.023,338.351 177.492,439.418"
           style="fill:none;stroke:#000000;stroke-width:1.58045995;stroke-linecap:butt;stroke-linejoin:miter;stroke-miterlimit:4;stroke-dasharray:none;stroke-opacity:1"
           id="path16"
           inkscape:connector-curvature="0" /></g><g
         id="g18"
         transform="scale(1,0.985386)"><path
           d="m 508.168,295.538 c 0,110.529 -109.086,200.131 -243.648,200.131 -134.559,0 -243.645,-89.602 -243.645,-200.131 0,-110.53 109.086,-200.132 243.645,-200.132 134.562,0 243.648,89.602 243.648,200.132 z"
           style="fill:none;stroke:#4d4d4d;stroke-width:2.71674705;stroke-linecap:butt;stroke-linejoin:miter;stroke-miterlimit:4;stroke-dasharray:5.433496, 5.433496;stroke-dashoffset:0;stroke-opacity:1"
           id="path20"
           inkscape:connector-curvature="0" /></g><g
         id="g22"
         transform="scale(1,0.985386)"><path
           d="m 132.684,151.511 c 0,20.634 -16.727,37.362 -37.368,37.362 -20.632,0 -37.359,-16.728 -37.359,-37.362 0,-20.634 16.727,-37.366 37.359,-37.366 20.641,0 37.368,16.732 37.368,37.366 z"
           style="fill:#ffffff;fill-opacity:1;fill-rule:nonzero;stroke:#0000ff;stroke-width:4.29543114;stroke-linecap:butt;stroke-linejoin:miter;stroke-miterlimit:4;stroke-dasharray:none;stroke-opacity:1"
           id="path24"
           inkscape:connector-curvature="0" /></g><text
         y="153.75975"
         x="60.20665"
         transform="scale(1.0073878,0.99266638)"
         style="font-variant:normal;font-weight:normal;font-size:15.49694252px;font-family:'DejaVu Sans';-inkscape-font-specification:DejaVuSans;writing-mode:lr-tb;fill:#000000;fill-opacity:1;fill-rule:nonzero;stroke:none;stroke-width:0.99266636"
         id="text28"><tspan
           style="stroke-width:0.99266636"
           x="60.20665 70.031708 76.075516 85.544151 89.8368 99.367424 105.44222 114.91086 119.82339"
           y="153.75975"
           sodipodi:role="line"
           id="tspan26">projeto 1</tspan></text>
<g
         id="g30"
         transform="scale(1,0.985386)"><path
           d="m 156.797,151.65 c 0,34.702 -28.129,62.832 -62.828,62.832 -34.703,0 -62.836,-28.13 -62.836,-62.832 0,-34.699 28.133,-62.829 62.836,-62.829 34.699,0 62.828,28.13 62.828,62.829 z"
           style="fill:none;stroke:#000000;stroke-width:0.77302498;stroke-linecap:butt;stroke-linejoin:miter;stroke-miterlimit:4;stroke-dasharray:4.638149, 4.638149;stroke-dashoffset:0;stroke-opacity:1"
           id="path32"
           inkscape:connector-curvature="0" /></g><g
         id="g34"
         transform="scale(1,0.985386)"><path
           d="m 568.754,288.787 c 0,34.698 -28.137,62.828 -62.836,62.828 -34.703,0 -62.832,-28.13 -62.832,-62.828 0,-34.707 28.129,-62.837 62.832,-62.837 34.699,0 62.836,28.13 62.836,62.837 z"
           style="fill:none;stroke:#000000;stroke-width:0.77302498;stroke-linecap:butt;stroke-linejoin:miter;stroke-miterlimit:4;stroke-dasharray:4.638149, 4.638149;stroke-dashoffset:0;stroke-opacity:1"
           id="path36"
           inkscape:connector-curvature="0" /></g><g
         id="g38"
         transform="scale(1,0.985386)"><path
           d="m 220.672,471.706 c 0,34.702 -28.137,62.832 -62.836,62.832 -34.703,0 -62.832,-28.13 -62.832,-62.832 0,-34.699 28.129,-62.828 62.832,-62.828 34.699,0 62.836,28.129 62.836,62.828 z"
           style="fill:none;stroke:#000000;stroke-width:0.77302498;stroke-linecap:butt;stroke-linejoin:miter;stroke-miterlimit:4;stroke-dasharray:4.638149, 4.638149;stroke-dashoffset:0;stroke-opacity:1"
           id="path40"
           inkscape:connector-curvature="0" /></g><g
         id="g42"
         transform="scale(1,0.985386)"><path
           d="m 196.332,471.151 c 0,20.637 -16.73,37.366 -37.367,37.366 -20.633,0 -37.363,-16.729 -37.363,-37.366 0,-20.634 16.73,-37.363 37.363,-37.363 20.637,0 37.367,16.729 37.367,37.363 z"
           style="fill:#ffffff;fill-opacity:1;fill-rule:nonzero;stroke:#ff0000;stroke-width:4.29543114;stroke-linecap:butt;stroke-linejoin:miter;stroke-miterlimit:4;stroke-dasharray:none;stroke-opacity:1"
           id="path44"
           inkscape:connector-curvature="0" /></g><text
         y="471.97324"
         x="126.14016"
         transform="scale(1.0073878,0.99266638)"
         style="font-variant:normal;font-weight:normal;font-size:15.49694252px;font-family:'DejaVu Sans';-inkscape-font-specification:DejaVuSans;writing-mode:lr-tb;fill:#000000;fill-opacity:1;fill-rule:nonzero;stroke:none;stroke-width:0.99266636"
         id="text48"><tspan
           style="stroke-width:0.99266636"
           x="126.14016 135.22137 141.26518 150.73381 155.02646 164.55708 170.63188 180.10051 185.01305"
           y="471.97324"
           sodipodi:role="line"
           id="tspan46">Projeto 3</tspan></text>
<g
         id="g50"
         transform="scale(1,0.985386)"><path
           d="m 413.914,281.81 c 0,50.595 -56.312,91.604 -125.773,91.604 -69.465,0 -125.778,-41.009 -125.778,-91.604 0,-50.587 56.313,-91.597 125.778,-91.597 69.461,0 125.773,41.01 125.773,91.597 z"
           style="fill:none;stroke:#000000;stroke-width:1.32058203;stroke-linecap:butt;stroke-linejoin:miter;stroke-miterlimit:4;stroke-dasharray:7.923494, 7.923494;stroke-dashoffset:0;stroke-opacity:1"
           id="path52"
           inkscape:connector-curvature="0" /></g><g
         id="g54"
         transform="scale(1,0.985386)"><path
           d="m 395.102,225.467 c 0,4.218 -3.414,7.639 -7.633,7.639 -4.215,0 -7.633,-3.421 -7.633,-7.639 0,-4.21 3.418,-7.631 7.633,-7.631 4.219,0 7.633,3.421 7.633,7.631 z"
           style="fill:#000000;fill-opacity:1;fill-rule:nonzero;stroke:#000000;stroke-width:0.53751802;stroke-linecap:butt;stroke-linejoin:miter;stroke-miterlimit:4;stroke-dasharray:none;stroke-opacity:1"
           id="path56"
           inkscape:connector-curvature="0" /></g><text
         y="209.9288"
         x="382.008"
         transform="scale(1.0073878,0.99266634)"
         style="font-variant:normal;font-weight:normal;font-size:13.28309345px;font-family:'DejaVu Sans';-inkscape-font-specification:DejaVuSans;writing-mode:lr-tb;fill:#000000;fill-opacity:1;fill-rule:nonzero;stroke:none;stroke-width:0.99266636"
         id="text60"><tspan
           style="stroke-width:0.99266636"
           x="382.008 391.12021 399.23618 402.91559 409.82278 413.5022 420.40942 425.61639 433.74564 437.95639"
           y="209.9288"
           sodipodi:role="line"
           id="tspan58">Bolsista 4</tspan></text>
<g
         id="g62"
         transform="matrix(1,0,0,0.985386,-16.052161,40.130409)"><path
           d="m 576.555,290.329 c 0,4.214 -3.414,7.635 -7.633,7.635 -4.215,0 -7.637,-3.421 -7.637,-7.635 0,-4.218 3.422,-7.635 7.637,-7.635 4.219,0 7.633,3.417 7.633,7.635 z"
           style="fill:#000000;fill-opacity:1;fill-rule:nonzero;stroke:#000000;stroke-width:0.53751802;stroke-linecap:butt;stroke-linejoin:miter;stroke-miterlimit:4;stroke-dasharray:none;stroke-opacity:1"
           id="path64"
           inkscape:connector-curvature="0" /></g><text
         y="362.4176"
         x="499.01309"
         transform="scale(1.0073878,0.99266637)"
         style="font-variant:normal;font-weight:normal;font-size:13.28309345px;font-family:'DejaVu Sans';-inkscape-font-specification:DejaVuSans;writing-mode:lr-tb;fill:#000000;fill-opacity:1;fill-rule:nonzero;stroke:none;stroke-width:0.99266636"
         id="text72"><tspan
           y="362.4176"
           x="499.01309"
           id="tspan1054"
           style="stroke-width:0.99266636"
           sodipodi:role="line">Bolsista 3</tspan></text>
<g
         id="g74"
         transform="scale(1,0.985386)"><path
           d="m 208.871,515.094 c 0,4.218 -3.414,7.631 -7.633,7.631 -4.215,0 -7.629,-3.413 -7.629,-7.631 0,-4.218 3.414,-7.635 7.629,-7.635 4.219,0 7.633,3.417 7.633,7.635 z"
           style="fill:#000000;fill-opacity:1;fill-rule:nonzero;stroke:#000000;stroke-width:0.53751802;stroke-linecap:butt;stroke-linejoin:miter;stroke-miterlimit:4;stroke-dasharray:none;stroke-opacity:1"
           id="path76"
           inkscape:connector-curvature="0" /></g><text
         y="536.70282"
         x="196.51938"
         transform="scale(1.0073878,0.99266634)"
         style="font-variant:normal;font-weight:normal;font-size:13.28309345px;font-family:'DejaVu Sans';-inkscape-font-specification:DejaVuSans;writing-mode:lr-tb;fill:#000000;fill-opacity:1;fill-rule:nonzero;stroke:none;stroke-width:0.99266636"
         id="text84"><tspan
           style="stroke-width:0.99266636"
           x="196.51938"
           y="536.70282"
           sodipodi:role="line"
           id="tspan82">Bolsista 2</tspan></text>
<g
         id="g86"
         transform="scale(1,0.985386)"><path
           d="m 106.832,89.626 c 0,4.218 -3.418,7.631 -7.633,7.631 -4.219,0 -7.637,-3.413 -7.637,-7.631 0,-4.218 3.418,-7.631 7.637,-7.631 4.215,0 7.633,3.413 7.633,7.631 z"
           style="fill:#000000;fill-opacity:1;fill-rule:nonzero;stroke:#000000;stroke-width:0.53751802;stroke-linecap:butt;stroke-linejoin:miter;stroke-miterlimit:4;stroke-dasharray:none;stroke-opacity:1"
           id="path88"
           inkscape:connector-curvature="0" /></g><text
         y="71.121658"
         x="99.528236"
         transform="scale(1.0073878,0.99266636)"
         style="font-variant:normal;font-weight:normal;font-size:13.28309345px;font-family:'DejaVu Sans';-inkscape-font-specification:DejaVuSans;writing-mode:lr-tb;fill:#000000;fill-opacity:1;fill-rule:nonzero;stroke:none;stroke-width:0.99266636"
         id="text96"><tspan
           style="stroke-width:0.99266636"
           x="99.528236"
           y="71.121658"
           sodipodi:role="line"
           id="tspan94">Bolsista 1</tspan></text>
<g
         id="g98"
         transform="scale(1,0.985386)"><path
           d="M 122.039,178.325 198.547,245.7"
           style="fill:none;stroke:#000000;stroke-width:1.58045995;stroke-linecap:butt;stroke-linejoin:miter;stroke-miterlimit:4;stroke-dasharray:none;stroke-opacity:1"
           id="path100"
           inkscape:connector-curvature="0" /></g><g
         id="g102"
         transform="scale(1,0.985386)"><path
           d="m 305.23,290.622 160.731,-2.101"
           style="fill:none;stroke:#000000;stroke-width:1.58045995;stroke-linecap:butt;stroke-linejoin:miter;stroke-miterlimit:4;stroke-dasharray:none;stroke-opacity:1"
           id="path104"
           inkscape:connector-curvature="0" /></g><g
         id="g106"
         transform="matrix(0.899735,-0.985386,1,0.886587,0,0)"><path
           d="m -32.438,167.03 h -10.854 l 2.713,-4.699 2.714,-4.704 2.713,4.704 z"
           style="fill:#000000;fill-opacity:1;fill-rule:nonzero;stroke:#000000;stroke-width:0.51664001;stroke-linecap:butt;stroke-linejoin:miter;stroke-miterlimit:4;stroke-dasharray:none;stroke-opacity:1"
           id="path108"
           inkscape:connector-curvature="0" /></g><g
         id="g110"
         transform="matrix(-0.327486,-0.985386,1,-0.3227,0,0)"><path
           d="m -263.712,104.872 -6.934,0.003 -6.94,-0.003 6.94,-12.017 3.466,6.011 z"
           style="fill:#000000;fill-opacity:1;fill-rule:nonzero;stroke:#000000;stroke-width:0.66046298;stroke-linecap:butt;stroke-linejoin:miter;stroke-miterlimit:4;stroke-dasharray:none;stroke-opacity:1"
           id="path112"
           inkscape:connector-curvature="0" /></g><g
         id="g114"
         transform="matrix(-1,-0.560511,0.568824,-0.985386,0,0)"><path
           d="m -461.918,-18.727 -12.69,-0.004 6.345,-10.986 3.176,5.495 z"
           style="fill:#000000;fill-opacity:1;fill-rule:nonzero;stroke:#000000;stroke-width:0.60408598;stroke-linecap:butt;stroke-linejoin:miter;stroke-miterlimit:4;stroke-dasharray:none;stroke-opacity:1"
           id="path116"
           inkscape:connector-curvature="0" /></g><g
         id="g118"
         transform="matrix(0.00996647,-0.985386,1,0.00982082,0,0)"><path
           d="m -280.107,324.358 -14.6,-0.003 3.647,-6.321 3.652,-6.322 3.646,6.323 z"
           style="fill:#000000;fill-opacity:1;fill-rule:nonzero;stroke:#000000;stroke-width:0.69494301;stroke-linecap:butt;stroke-linejoin:miter;stroke-miterlimit:4;stroke-dasharray:none;stroke-opacity:1"
           id="path120"
           inkscape:connector-curvature="0" /></g><g
         id="g122"
         transform="matrix(-0.102255,-0.985386,1,-0.100761,0,0)"><path
           d="m -360.931,189.46 -7.263,0.004 -7.262,-0.001 7.26,-12.578 3.631,6.286 z"
           style="fill:#000000;fill-opacity:1;fill-rule:nonzero;stroke:#000000;stroke-width:0.69137198;stroke-linecap:butt;stroke-linejoin:miter;stroke-miterlimit:4;stroke-dasharray:none;stroke-opacity:1"
           id="path124"
           inkscape:connector-curvature="0" /></g><g
         id="g126"
         transform="matrix(-1,-0.489446,0.496705,-0.985386,0,0)"><path
           d="m -310.9,-268.113 -6.538,10e-4 h -6.535 l 3.27,-5.66 3.268,-5.667 3.269,5.662 z"
           style="fill:#000000;fill-opacity:1;fill-rule:nonzero;stroke:#000000;stroke-width:0.62242401;stroke-linecap:butt;stroke-linejoin:miter;stroke-miterlimit:4;stroke-dasharray:none;stroke-opacity:1"
           id="path128"
           inkscape:connector-curvature="0" /></g><g
         id="g130"
         transform="scale(1,0.985386)"><path
           d="m 305.898,281.588 c 0,33.017 -26.769,59.783 -59.785,59.783 -33.015,0 -59.781,-26.766 -59.781,-59.783 0,-33.014 26.766,-59.78 59.781,-59.78 33.016,0 59.785,26.766 59.785,59.78 z"
           style="fill:none;stroke:#ff9955;stroke-width:6.87268877;stroke-linecap:butt;stroke-linejoin:miter;stroke-miterlimit:4;stroke-dasharray:none;stroke-opacity:1"
           id="path132"
           inkscape:connector-curvature="0" /></g><g
         id="g134"
         transform="scale(1,0.985386)"><path
           d="m 541.355,288.275 c 0,20.634 -16.726,37.367 -37.367,37.367 -20.633,0 -37.363,-16.733 -37.363,-37.367 0,-20.633 16.73,-37.366 37.363,-37.366 20.641,0 37.367,16.733 37.367,37.366 z"
           style="fill:#ffffff;fill-opacity:1;fill-rule:nonzero;stroke:#008000;stroke-width:4.29543114;stroke-linecap:butt;stroke-linejoin:miter;stroke-miterlimit:4;stroke-dasharray:none;stroke-opacity:1"
           id="path136"
           inkscape:connector-curvature="0" /></g><text
         y="291.93887"
         x="465.88046"
         transform="scale(1.0073878,0.99266638)"
         style="font-variant:normal;font-weight:normal;font-size:15.49694252px;font-family:'DejaVu Sans';-inkscape-font-specification:DejaVuSans;writing-mode:lr-tb;fill:#000000;fill-opacity:1;fill-rule:nonzero;stroke:none;stroke-width:0.99266636"
         id="text140"><tspan
           style="stroke-width:0.99266636"
           x="465.88046 474.96167 481.00546 490.47409 494.76675 504.29736 510.37216 519.84082 524.75336"
           y="291.93887"
           sodipodi:role="line"
           id="tspan138">Projeto 2</tspan></text>
<text
         y="275.31113"
         x="204.41428"
         transform="scale(1.0073878,0.99266635)"
         style="font-variant:normal;font-weight:normal;font-size:17.71079254px;font-family:'DejaVu Sans';-inkscape-font-specification:DejaVuSans;writing-mode:lr-tb;fill:#000000;fill-opacity:1;fill-rule:nonzero;stroke:none;stroke-width:0.99266636"
         id="text144"><tspan
           style="stroke-width:0.99266636"
           x="204.41428 214.7928 221.70001 232.52132 243.74995 251.02908 261.8681 279.11841"
           y="275.31113"
           sodipodi:role="line"
           id="tspan142">Programa</tspan></text>
<text
         y="484.3443"
         x="129.10466"
         transform="scale(1.0073879,0.99266632)"
         style="font-style:oblique;font-variant:normal;font-size:8.85539627px;font-family:'DejaVu Sans';-inkscape-font-specification:DejaVuSans-Oblique;writing-mode:lr-tb;fill:#000000;fill-opacity:1;fill-rule:nonzero;stroke:none;stroke-width:0.9926663"
         id="text156"><tspan
           style="stroke-width:0.9926663"
           x="129.10466 134.19652 137.83609 143.25558 148.86105 153.98833 159.43439 165.03986 169.64467 173.11598 178.56204 181.015"
           y="484.3443"
           sodipodi:role="line"
           id="tspan146">Frankenstein</tspan><tspan
           style="stroke-width:0.9926663"
           x="473.37665 480.02707 485.43774 490.01596 495.63028 498.08322 501.55453 506.97406 509.40045 512.20758 517.8219 523.21484"
           y="302.68869"
           sodipodi:role="line"
           id="tspan148">Hospital das</tspan><tspan
           style="stroke-width:0.9926663"
           x="478.97183 487.59698 493.01648 498.63083 504.2363 506.66266 512.26813 517.68762"
           y="313.75793"
           sodipodi:role="line"
           id="tspan150">máquinas</tspan><tspan
           style="stroke-width:0.9926663"
           x="68.957756 76.591103 82.010605 87.616074 93.221542 96.338638 101.75814 105.22945 110.83492 114.47449"
           y="168.6403"
           sodipodi:role="line"
           id="tspan152">Manufatura</tspan><tspan
           style="stroke-width:0.9926663"
           x="77.735291 81.374863 86.82093 92.054466 97.500534 101.14011 105.71835"
           y="179.70958"
           sodipodi:role="line"
           id="tspan154">reversa</tspan></text>
<text
         y="295.06"
         x="197.73236"
         transform="scale(1.0189666,0.98138647)"
         style="font-style:oblique;font-variant:normal;font-size:14.47436237px;font-family:'DejaVu Sans';-inkscape-font-specification:DejaVuSans-Oblique;writing-mode:lr-tb;fill:#000000;fill-opacity:1;fill-rule:nonzero;stroke:none;stroke-width:0.98138648"
         id="text162"><tspan
           style="stroke-width:0.98138648"
           x="197.73236 207.77757 216.67931 224.62573 228.59171 236.53813 240.54753 249.40584 258.53915 267.44089"
           y="295.06"
           sodipodi:role="line"
           id="tspan158">Reciclagem</tspan><tspan
           style="stroke-width:0.98138648"
           x="216.27765 227.4229 231.4323 240.60904 244.61844 250.24898 259.10727"
           y="313.15295"
           sodipodi:role="line"
           id="tspan160">Digital</tspan></text>
</g></g></svg>