<?xml version="1.0" encoding="UTF-8" standalone="no"?>
<!-- Created with Inkscape (http://www.inkscape.org/) -->

<svg
   xmlns:dc="http://purl.org/dc/elements/1.1/"
   xmlns:cc="http://creativecommons.org/ns#"
   xmlns:rdf="http://www.w3.org/1999/02/22-rdf-syntax-ns#"
   xmlns:svg="http://www.w3.org/2000/svg"
   xmlns="http://www.w3.org/2000/svg"
   xmlns:sodipodi="http://sodipodi.sourceforge.net/DTD/sodipodi-0.dtd"
   xmlns:inkscape="http://www.inkscape.org/namespaces/inkscape"
   width="210mm"
   height="297mm"
   viewBox="0 0 744.09448819 1052.3622047"
   id="svg2"
   version="1.1"
   inkscape:version="0.91 r"
   sodipodi:docname="logo2verde.svg">
  <defs
     id="defs4" />
  <sodipodi:namedview
     id="base"
     pagecolor="#ffffff"
     bordercolor="#666666"
     borderopacity="1.0"
     inkscape:pageopacity="0.0"
     inkscape:pageshadow="2"
     inkscape:zoom="0.70710678"
     inkscape:cx="279.43304"
     inkscape:cy="488.42064"
     inkscape:document-units="px"
     inkscape:current-layer="layer1"
     showgrid="false"
     inkscape:window-width="1600"
     inkscape:window-height="876"
     inkscape:window-x="1366"
     inkscape:window-y="0"
     inkscape:window-maximized="1" />
  <metadata
     id="metadata7">
    <rdf:RDF>
      <cc:Work
         rdf:about="">
        <dc:format>image/svg+xml</dc:format>
        <dc:type
           rdf:resource="http://purl.org/dc/dcmitype/StillImage" />
        <dc:title />
      </cc:Work>
    </rdf:RDF>
  </metadata>
  <g
     inkscape:label="Camada 1"
     inkscape:groupmode="layer"
     id="layer1">
    <g
       id="g4359"
       transform="matrix(1.3583089,0,0,1.3583089,-127.0318,-191.08537)">
      <g
         transform="matrix(0.44607946,0,0,0.44607946,1264.6048,221.284)"
         id="g4591">
        <rect
           style="opacity:1;fill:#ffffff;fill-opacity:1;stroke:#000000;stroke-width:13.75529385;stroke-linecap:butt;stroke-linejoin:round;stroke-miterlimit:4;stroke-dasharray:none;stroke-dashoffset:0;stroke-opacity:1"
           id="rect4344-5"
           width="182.63469"
           height="108.39822"
           x="-1684.0046"
           y="431.96677"
           rx="19.252628" />
        <rect
           style="opacity:1;fill:#000000;fill-opacity:1;stroke:#000000;stroke-width:9.13472652;stroke-linecap:butt;stroke-linejoin:miter;stroke-miterlimit:4;stroke-dasharray:none;stroke-dashoffset:0;stroke-opacity:1"
           id="rect4348-6"
           width="36.827747"
           height="35.78289"
           x="-1614.1084"
           y="549.72565"
           rx="0" />
        <path
           style="fill:#ffffff;fill-rule:evenodd;stroke:#000000;stroke-width:6.8031497;stroke-linecap:butt;stroke-linejoin:miter;stroke-miterlimit:4;stroke-dasharray:none;stroke-opacity:1"
           d="m -1704.5987,592.23663 204.8799,0 39.5707,58.18424 -206.729,0 z"
           id="path4350-3"
           inkscape:connector-curvature="0" />
        <path
           style="fill:#000000;fill-rule:evenodd;stroke:#000000;stroke-width:0.99423933;stroke-linecap:butt;stroke-linejoin:miter;stroke-miterlimit:4;stroke-dasharray:none;stroke-opacity:1"
           d="m -1681.7229,602.64223 29.9419,0 5.7831,8.50328 -30.2122,0 z"
           id="path4350-1-74"
           inkscape:connector-curvature="0" />
        <path
           style="fill:#000000;fill-rule:evenodd;stroke:#000000;stroke-width:0.99423933;stroke-linecap:butt;stroke-linejoin:miter;stroke-miterlimit:4;stroke-dasharray:none;stroke-opacity:1"
           d="m -1641.6813,601.89237 29.9419,0 5.7831,8.50328 -30.2122,0 z"
           id="path4350-1-5-0"
           inkscape:connector-curvature="0" />
        <path
           style="fill:#000000;fill-rule:evenodd;stroke:#000000;stroke-width:0.99423933;stroke-linecap:butt;stroke-linejoin:miter;stroke-miterlimit:4;stroke-dasharray:none;stroke-opacity:1"
           d="m -1670.926,620.63895 29.9419,0 5.7831,8.50328 -30.2122,0 z"
           id="path4350-1-7-6"
           inkscape:connector-curvature="0" />
        <path
           style="fill:#000000;fill-rule:evenodd;stroke:#000000;stroke-width:0.99423933;stroke-linecap:butt;stroke-linejoin:miter;stroke-miterlimit:4;stroke-dasharray:none;stroke-opacity:1"
           d="m -1630.4333,621.38882 29.9419,0 5.7831,8.50328 -30.2122,0 z"
           id="path4350-1-4-5"
           inkscape:connector-curvature="0" />
        <path
           style="fill:#000000;fill-rule:evenodd;stroke:#000000;stroke-width:0.99423933;stroke-linecap:butt;stroke-linejoin:miter;stroke-miterlimit:4;stroke-dasharray:none;stroke-opacity:1"
           d="m -1588.441,619.88909 29.9419,0 5.7831,8.50328 -30.2122,0 z"
           id="path4350-1-0-7"
           inkscape:connector-curvature="0" />
        <path
           style="fill:#000000;fill-rule:evenodd;stroke:#000000;stroke-width:0.99423933;stroke-linecap:butt;stroke-linejoin:miter;stroke-miterlimit:4;stroke-dasharray:none;stroke-opacity:1"
           d="m -1595.9396,604.14197 29.9419,0 5.7831,8.50328 -30.2122,0 z"
           id="path4350-1-50-1"
           inkscape:connector-curvature="0" />
        <path
           style="fill:#000000;fill-rule:evenodd;stroke:#000000;stroke-width:0.99423933;stroke-linecap:butt;stroke-linejoin:miter;stroke-miterlimit:4;stroke-dasharray:none;stroke-opacity:1"
           d="m -1552.4476,599.64278 29.9419,0 5.7831,8.50328 -30.2122,0 z"
           id="path4350-1-1-2"
           inkscape:connector-curvature="0" />
        <path
           style="fill:#000000;fill-rule:evenodd;stroke:#000000;stroke-width:0.99423933;stroke-linecap:butt;stroke-linejoin:miter;stroke-miterlimit:4;stroke-dasharray:none;stroke-opacity:1"
           d="m -1548.6983,618.38936 29.9419,0 5.7831,8.50328 -30.2122,0 z"
           id="path4350-1-2-3"
           inkscape:connector-curvature="0" />
        <path
           style="fill:#000000;fill-rule:evenodd;stroke:#000000;stroke-width:0.99423933;stroke-linecap:butt;stroke-linejoin:miter;stroke-miterlimit:4;stroke-dasharray:none;stroke-opacity:1"
           d="m -1518.7037,632.63677 29.9419,0 5.7831,8.50328 -30.2122,0 z"
           id="path4350-1-8-0"
           inkscape:connector-curvature="0" />
        <path
           style="fill:none;fill-rule:evenodd;stroke:#000000;stroke-width:5.23164272;stroke-linecap:butt;stroke-linejoin:miter;stroke-miterlimit:4;stroke-dasharray:none;stroke-opacity:1"
           d="m -1492.6177,603.05349 c 0.6347,-0.0997 1.2633,-0.22729 1.904,-0.29921 0.5274,-0.0592 1.8175,0 2.2848,0 1.1424,0 2.2848,0 3.4272,0 0.4408,0 1.564,-0.0668 1.904,0 0.2753,0.0541 0.4923,0.22869 0.7616,0.29921 0.1204,0.0315 0.2672,-0.0446 0.3808,0 0.1605,0.0631 0.2202,0.23614 0.3808,0.29921 0.1135,0.0446 0.2538,0 0.3808,0 0.2538,0.0997 0.5254,0.17551 0.7616,0.29922 0.2987,0.15648 0.4628,0.44194 0.7615,0.59842 0.2362,0.12371 0.5255,0.17551 0.7616,0.29922 0.2988,0.15648 0.421,0.50922 0.7616,0.59842 0.6539,0.17127 0.7852,-0.26215 1.1424,0.29922 0.057,0.0892 -0.057,0.21 0,0.29921 0.08,0.12616 0.3005,0.17306 0.3808,0.29922 0.057,0.0892 -0.031,0.20245 0,0.29921 0.097,0.30598 0.2013,0.61554 0.3808,0.89764 0.1874,0.29444 1.3359,0.90242 1.5232,1.19686 0.057,0.0892 -0.057,0.21 0,0.29921 0.08,0.12616 0.3005,0.17305 0.3808,0.29921 0.057,0.0892 -0.04,0.2046 0,0.29922 0.09,0.21157 0.291,0.38685 0.3808,0.59842 0.04,0.0946 -0.057,0.21001 0,0.29922 0.2285,0.35905 0.9139,0.53858 1.1424,0.89764 0.057,0.0892 -0.057,0.21 0,0.29921 0.1017,0.15981 0.9419,0.74012 1.1424,0.89764 0.3808,0.29922 0.7616,0.59843 1.1424,0.89764 0.1269,0.0997 0.2202,0.23614 0.3808,0.29922 0.227,0.0892 0.5345,-0.0892 0.7616,0 0.3211,0.12616 0.421,0.50922 0.7616,0.59842 0.2408,0.0631 0.5345,-0.0892 0.7616,0 0.3211,0.12616 0.4628,0.44195 0.7616,0.59843 0.1056,0.0553 0.2603,-0.0315 0.3808,0 0.2692,0.0705 0.4923,0.22869 0.7615,0.29922 0.2409,0.0631 0.5208,-0.0631 0.7616,0 0.2693,0.0705 0.4924,0.22868 0.7616,0.29921 0.1204,0.0315 0.2539,0 0.3808,0 0.5161,0 2.4136,-0.066 2.6656,0 1.6809,0.44026 -1.3835,0.29921 1.1424,0.29921 0.3586,0 1.6874,-0.0567 1.904,0 0.3406,0.0892 0.4405,0.47227 0.7616,0.59843 0.1129,0.0444 1.9164,0 2.2848,0 0.6346,0 1.2693,0 1.9039,0 0.2539,0 0.5078,0 0.7616,0 0.127,0 0.2673,0.0446 0.3808,0 0.1606,-0.0631 0.2203,-0.23614 0.3808,-0.29921 0.1874,-0.0736 1.9225,0.0569 2.2848,0 0.3936,-0.0619 0.753,-0.22272 1.1424,-0.29922 0.4763,-0.0936 1.057,0.12211 1.5232,0 0.1703,-0.0446 0.2202,-0.23613 0.3808,-0.29921 0.1135,-0.0446 0.2539,0 0.3808,0 0.2539,-0.19948 0.4629,-0.44195 0.7616,-0.59843 0.1056,-0.0553 0.2538,0 0.3808,0 0.1269,0 0.2538,0 0.3808,0 1.3512,0 1.9852,-0.23541 3.0464,0.59843"
           id="path4424-8"
           inkscape:connector-curvature="0" />
        <path
           style="fill:none;fill-rule:evenodd;stroke:#000000;stroke-width:5.47970486;stroke-linecap:butt;stroke-linejoin:miter;stroke-miterlimit:4;stroke-dasharray:none;stroke-opacity:1"
           d="m -1441.0992,615.33037 c -4.6575,0 -0.5808,-0.41667 -2.1213,0.35355 -0.1054,0.0527 -0.2417,-0.0372 -0.3535,0 -0.25,0.0833 -0.4571,0.27023 -0.7071,0.35356 -0.2432,0.0811 -0.8521,-0.1043 -1.0607,0 -0.1491,0.0745 -0.1954,0.30085 -0.3536,0.35355 -0.2236,0.0745 -0.4714,0 -0.7071,0 -0.1178,0 -0.2481,-0.0527 -0.3535,0 -0.1491,0.0745 -0.2045,0.27902 -0.3536,0.35356 -0.1054,0.0527 -0.2357,0 -0.3535,0 -0.2357,0.2357 -0.4298,0.52221 -0.7071,0.70711 -0.098,0.0654 -0.2418,-0.0373 -0.3536,0 -0.25,0.0833 -0.4515,0.28964 -0.7071,0.35355 -0.2287,0.0572 -0.4714,0 -0.7071,0 -0.1179,0 -0.2482,-0.0527 -0.3536,0 -0.2981,0.14907 -0.4089,0.55804 -0.7071,0.70711 -0.3333,0.16667 -0.7625,0.12995 -1.0606,0.35356 -0.8613,0.64593 0.1067,0.65373 -0.7072,1.06066 -0.3333,0.16667 -0.7411,0.16181 -1.0606,0.35355 -0.4288,0.25725 -0.7071,0.70711 -1.0607,1.06067 -0.1178,0.11785 -0.2357,0.2357 -0.3535,0.35356 -0.1179,0.11784 -0.2791,0.20448 -0.3536,0.35355 -0.1054,0.21082 0.1054,0.49629 0,0.7071 -0.4369,0.87378 -0.3535,-0.12203 -0.3535,0.70712 0,0.28903 -0.06,2.29569 0,2.47488 0.053,0.15811 0.279,0.20448 0.3535,0.35356 0.1054,0.21081 -0.1054,0.49628 0,0.7071 0.074,0.14907 0.279,0.20449 0.3536,0.35356 0.053,0.10541 -0.053,0.24814 0,0.35355 0.074,0.14907 0.279,0.20448 0.3535,0.35356 0.053,0.10541 -0.053,0.24814 0,0.35355 0.074,0.14908 0.3009,0.19544 0.3536,0.35356 0.5102,1.53075 -0.6759,-0.12995 0.3535,1.41421 0.3469,0.52025 1.0674,0.89398 1.4142,1.41422 0.2154,0.32297 0.3018,0.858 0.7072,1.06067 0.1054,0.0527 0.2481,-0.0527 0.3535,0 0.1491,0.0745 0.2357,0.2357 0.3536,0.35355 0.1178,0.11785 0.2357,0.23571 0.3535,0.35356 0.3536,0.35355 0.7071,0.70711 1.0607,1.06066 0.2357,0.2357 0.4297,0.52221 0.7071,0.70711 0.2193,0.14618 0.4878,0.20738 0.7071,0.35356 0.2774,0.1849 0.409,0.55803 0.7071,0.7071 0.3333,0.16667 0.7273,0.18689 1.0607,0.35356 0.4242,0.21213 0.6364,0.84853 1.0606,1.06066 0.1054,0.0527 0.2482,-0.0527 0.3536,0 0.3479,0.17396 1.0663,1.24027 1.4142,1.41422 0.1054,0.0527 0.2482,-0.0527 0.3536,0 0.2981,0.14907 0.4297,0.52221 0.7071,0.70711 0.2192,0.14618 0.4878,0.20738 0.7071,0.35355 0.3218,0.21457 0.7473,0.90398 1.0606,1.06067 0.1055,0.0527 0.2418,-0.0372 0.3536,0 0.25,0.0833 0.4571,0.27022 0.7071,0.35355 0.2236,0.0745 0.4835,-0.0745 0.7071,0 2.561,0.85365 -0.5574,-0.10193 1.0607,0.70711 0.1054,0.0527 0.2481,-0.0527 0.3535,0 0.1491,0.0745 0.2045,0.27902 0.3536,0.35356 0.2222,0.1111 1.192,-0.11111 1.4142,0 0.1491,0.0745 0.2357,0.2357 0.3536,0.35355 0.3535,0 0.7139,-0.0693 1.0606,0 0.2584,0.0517 0.4571,0.27022 0.7071,0.35356 0.1118,0.0373 0.2482,-0.0527 0.3536,0 0.3801,0.19003 0.6806,0.51707 1.0607,0.7071 0.2108,0.10542 0.4784,-0.0572 0.7071,0 0.3615,0.0904 0.6952,0.28047 1.0606,0.35356 0.2895,0.0579 1.5864,-0.0907 1.7678,0 0.1491,0.0745 0.2045,0.27902 0.3536,0.35355 0.1075,0.0538 1.17,0 1.4142,0 1.0606,0 2.1213,0 3.182,0 0.5892,0 1.1785,0 1.7677,0 0.1179,0 0.2357,0 0.3536,0 0.1179,0 0.2481,0.0527 0.3536,0 0.149,-0.0745 0.2357,-0.2357 0.3535,-0.35355 0.1179,-0.11785 0.279,-0.20448 0.3536,-0.35356 0.053,-0.1054 -0.053,-0.24814 0,-0.35355 0.074,-0.14907 0.2357,-0.2357 0.3535,-0.35355 0.2762,-0.27616 0.8573,-0.75558 1.0607,-1.06067 0.7019,-0.31864 0.1362,-0.9796 0.3535,-1.41421 0.1491,-0.29815 0.5222,-0.42976 0.7071,-0.70712 0.065,-0.0981 -0.053,-0.24814 0,-0.35355 0.074,-0.14907 0.2358,-0.2357 0.3536,-0.35356 0,-0.2357 -0.075,-0.4835 0,-0.7071 0.053,-0.15812 0.279,-0.20449 0.3536,-0.35356 0.053,-0.10541 0,-0.2357 0,-0.35355 0,-0.11785 0,-0.23571 0,-0.35356 0,-0.41266 -0.069,-1.84549 0,-2.12132 0.064,-0.25566 0.2702,-0.45711 0.3535,-0.70712 0.037,-0.1118 0,-0.2357 0,-0.35355 0,-0.2357 0,-0.47141 0,-0.70711 0,-0.58926 0,-1.17851 0,-1.76777 0,-0.2357 0.075,-0.4835 0,-0.70711 -0.083,-0.25 -0.2702,-0.45711 -0.3535,-0.70711 -0.074,-0.22361 0.1054,-0.49629 0,-0.70711 -0.2122,-0.42427 -0.8486,-0.6364 -1.0607,-1.06066 -0.053,-0.10541 0.037,-0.24176 0,-0.35356 -0.1667,-0.5 -0.5404,-0.91422 -0.7071,-1.41422 -0.3508,-1.05247 0.8372,0.72543 -0.3536,-1.06066 -0.1849,-0.27735 -0.558,-0.40897 -0.7071,-0.70711 -0.053,-0.10541 0.053,-0.24815 0,-0.35356 -0.074,-0.14907 -0.2357,-0.2357 -0.3535,-0.35355 -0.1179,-0.11785 -0.2357,-0.2357 -0.3536,-0.35355 -0.5892,-0.58926 -1.1785,-1.17852 -1.7678,-1.76778 -0.3535,-0.35355 -0.7071,-0.7071 -1.0606,-1.06066 -0.2357,-0.23571 -0.4298,-0.52221 -0.7071,-0.70711 -0.1781,-0.77894 -0.7274,-0.18689 -1.0607,-0.35356 -0.1491,-0.0745 -0.2357,-0.2357 -0.3536,-0.35355 -0.2357,-0.2357 -0.4297,-0.52221 -0.7071,-0.70711 -0.098,-0.0654 -0.2417,0.0372 -0.3535,0 -0.25,-0.0833 -0.4515,-0.28964 -0.7071,-0.35355 -0.2287,-0.0572 -0.4714,0 -0.7071,0 -0.1179,0 -0.2482,0.0527 -0.3536,0 -0.1491,-0.0745 -0.2045,-0.27902 -0.3535,-0.35356 -0.1055,-0.0527 -0.2418,0.0373 -0.3536,0 -0.25,-0.0833 -0.4571,-0.27022 -0.7071,-0.35356 -0.1118,-0.0372 -0.2418,0.0372 -0.3536,0 -2.5609,-0.85364 0.5575,0.10194 -1.0606,-0.7071 -0.1054,-0.0527 -0.2482,0.0527 -0.3536,0 -0.1491,-0.0745 -0.2045,-0.27902 -0.3535,-0.35356 -0.1055,-0.0527 -0.2482,0.0527 -0.3536,0 -0.1491,-0.0745 -0.1954,-0.30085 -0.3536,-0.35355 -0.2236,-0.0745 -0.4714,0 -0.7071,0 -0.1178,0 -0.2481,0.0527 -0.3535,0 -0.1491,-0.0745 -0.2357,-0.23571 -0.3536,-0.35356 -0.2357,-0.2357 -0.4297,-0.52221 -0.7071,-0.70711 -0.1961,-0.13074 -0.4963,0.10541 -0.7071,0 -0.1491,-0.0745 -0.1918,-0.31313 -0.3535,-0.35355 -0.343,-0.0858 -0.714,0.0693 -1.0607,0 -0.2584,-0.0517 -0.4571,-0.27022 -0.7071,-0.35356 -0.1118,-0.0372 -0.2357,0 -0.3536,0 -1.2349,0 -1.0024,-0.0145 -2.4749,0.35356 z"
           id="path4426-9"
           inkscape:connector-curvature="0" />
        <path
           style="fill:none;fill-rule:evenodd;stroke:#000000;stroke-width:4.57598734;stroke-linecap:butt;stroke-linejoin:miter;stroke-miterlimit:4;stroke-dasharray:none;stroke-opacity:1"
           d="m -1447.5546,632.8092 c 0.2953,-0.39366 0.6326,-0.75903 0.8857,-1.18098 0.052,-0.0877 0,-0.97601 0,-1.18098 0,-1.34405 -0.1391,-0.0169 0.2953,-0.88574 0.087,-0.17428 -0.085,-1.60126 0,-1.77149 0.1245,-0.24896 0.4361,-0.35888 0.5905,-0.59048 0.055,-0.082 -0.031,-0.20189 0,-0.29525 0.07,-0.20875 0.2256,-0.38172 0.2952,-0.59049 0.031,-0.0934 -0.044,-0.20721 0,-0.29524 0.062,-0.12449 0.2331,-0.17076 0.2953,-0.29525 0.088,-0.17605 -0.088,-0.41445 0,-0.5905 0.062,-0.12449 0.233,-0.17075 0.2952,-0.29525 0.044,-0.0881 -0.044,-0.20722 0,-0.29524 0.1245,-0.24897 0.466,-0.34151 0.5905,-0.5905 0.044,-0.0881 -0.044,-0.20721 0,-0.29524 0.1245,-0.24897 0.4361,-0.35888 0.5905,-0.59048 0.1221,-0.18312 0.1632,-0.41446 0.2953,-0.5905 0.167,-0.2227 0.3936,-0.39367 0.5905,-0.59049 0.098,-0.0984 0.1707,-0.233 0.2952,-0.29526 0.088,-0.0441 0.1968,0 0.2953,0 0.1968,0 0.4037,0.0622 0.5904,0 0.1321,-0.0441 0.1708,-0.233 0.2953,-0.29524 0.088,-0.0441 0.2019,0.0311 0.2952,0 2.1386,-0.71286 -0.4655,0.0851 0.8858,-0.59049 0.1742,-0.087 0.6826,0.0677 0.8857,0 0.2088,-0.0695 0.3817,-0.22566 0.5905,-0.29524 0.093,-0.0311 0.2019,0.0311 0.2952,0 0.2088,-0.0696 0.377,-0.24187 0.5905,-0.29525 0.191,-0.0479 0.3937,0 0.5905,0 0.5905,0 1.181,0 1.7715,0 0.1968,0 0.3995,0.0477 0.5905,0 0.3019,-0.0754 0.5838,-0.21976 0.8857,-0.29525 0.191,-0.0478 0.3937,0 0.5905,0 0.2953,0 0.5905,0 0.8858,0 1.1809,0 2.3619,0 3.5429,0"
           id="path4428-1"
           inkscape:connector-curvature="0" />
        <path
           style="opacity:1;fill:#ffffff;fill-opacity:1;stroke:#000000;stroke-width:7.90754461;stroke-linecap:butt;stroke-linejoin:miter;stroke-miterlimit:4;stroke-dasharray:none;stroke-dashoffset:0;stroke-opacity:1"
           id="path4430-2"
           sodipodi:type="arc"
           sodipodi:cx="1591.365"
           sodipodi:cy="-495.10193"
           sodipodi:rx="56.013683"
           sodipodi:ry="24.764732"
           sodipodi:start="3.1415927"
           sodipodi:end="0"
           d="m 1535.3513,-495.10193 a 56.013683,24.764732 0 0 1 56.0137,-24.76473 56.013683,24.764732 0 0 1 56.0137,24.76473"
           sodipodi:open="true"
           transform="scale(-1,-1)" />
        <ellipse
           style="opacity:1;fill:#ffffff;fill-opacity:1;stroke:#000000;stroke-width:6.37795258;stroke-linecap:butt;stroke-linejoin:miter;stroke-miterlimit:4;stroke-dasharray:none;stroke-dashoffset:0;stroke-opacity:1"
           id="path4522"
           cx="-1636.5714"
           cy="465.96921"
           rx="20.626169"
           ry="12.747674" />
        <ellipse
           style="opacity:1;fill:#ffffff;fill-opacity:1;stroke:#000000;stroke-width:6.37795258;stroke-linecap:butt;stroke-linejoin:miter;stroke-miterlimit:4;stroke-dasharray:none;stroke-dashoffset:0;stroke-opacity:1"
           id="path4522-3"
           cx="-1549.2173"
           cy="464.46948"
           rx="20.626169"
           ry="12.747674" />
        <path
           style="fill:none;fill-rule:evenodd;stroke:#000000;stroke-width:4.53543329;stroke-linecap:butt;stroke-linejoin:miter;stroke-miterlimit:4;stroke-dasharray:none;stroke-opacity:1"
           d="m -1597.6478,473.5432 11.9978,19.49645 -17.9967,0"
           id="path4539"
           inkscape:connector-curvature="0" />
      </g>
      <path
         sodipodi:nodetypes="ccsascccccsasc"
         inkscape:connector-curvature="0"
         id="path4189"
         d="m 437.22902,508.77444 19.75273,-11.98118 45.65799,82.89679 c 7.72536,14.02617 5.60804,28.09388 -0.9714,39.5055 -6.19517,10.74506 -20.98514,19.48581 -31.73394,19.42893 l -61.20117,-0.32381 -0.32378,26.55288 -26.22906,-37.56261 26.55284,-37.23879 -0.32378,26.55288 50.19141,0.32381 c 7.80772,0.0504 17.05576,-3.29127 21.69563,-9.71446 3.74831,-5.189 5.56905,-12.7137 1.94291,-19.10512 z"
         style="fill:#004d00;fill-opacity:1;fill-rule:evenodd;stroke:#008000;stroke-width:0.43183288px;stroke-linecap:butt;stroke-linejoin:miter;stroke-opacity:1" />
      <path
         sodipodi:nodetypes="ccsascccccsasc"
         inkscape:connector-curvature="0"
         id="path4189-4"
         d="m 369.21621,616.97547 0.49958,23.09698 -94.61968,-1.90741 c -16.00973,-0.32274 -27.13405,-9.19027 -33.72705,-20.59405 -6.20795,-10.73768 -6.38267,-27.91653 -0.95902,-37.19685 l 30.88102,-52.83984 -22.83355,-13.55687 45.64469,-3.93373 18.97331,41.61486 -22.83355,-13.55687 -25.37614,43.30513 c -3.94752,6.73651 -5.67757,16.41637 -2.43485,23.64621 2.61963,5.84064 8.22586,11.17979 15.57405,11.23516 z"
         style="fill:#004d00;fill-opacity:1;fill-rule:evenodd;stroke:#008000;stroke-width:0.43183288px;stroke-linecap:butt;stroke-linejoin:miter;stroke-opacity:1" />
      <path
         sodipodi:nodetypes="ccsascccccsasc"
         inkscape:connector-curvature="0"
         id="path4189-7"
         d="m 308.86359,498.06659 -20.25236,-11.11579 48.96173,-80.98938 c 8.28433,-13.70343 21.52601,-18.90361 34.69846,-18.91145 12.40311,-0.007 27.36776,8.43072 32.69295,17.76792 l 30.32011,53.16365 23.15738,-12.99601 -19.41564,41.49634 -45.52615,-4.37607 23.15734,-12.99601 -24.81528,-43.62894 c -3.86024,-6.78689 -11.37819,-13.12511 -19.26078,-13.93175 -6.36794,-0.65165 -13.7949,1.53391 -17.51696,7.86997 z"
         style="fill:#004d00;fill-opacity:1;fill-rule:evenodd;stroke:#008000;stroke-width:0.43183288px;stroke-linecap:butt;stroke-linejoin:miter;stroke-opacity:1" />
      <text
         sodipodi:linespacing="125%"
         id="text4212"
         y="452.29138"
         x="370.64749"
         style="font-style:normal;font-weight:normal;font-size:17.27331543px;line-height:125%;font-family:sans-serif;text-align:center;letter-spacing:0px;word-spacing:0px;text-anchor:middle;fill:#000000;fill-opacity:1;stroke:none;stroke-width:1px;stroke-linecap:butt;stroke-linejoin:miter;stroke-opacity:1"
         xml:space="preserve"><tspan
           style="font-weight:normal;font-size:25.90997314px;stroke:#000000"
           y="452.29138"
           x="370.64749"
           id="tspan4214"
           sodipodi:role="line">1</tspan><tspan
           style="font-weight:normal;font-size:25.90997314px;stroke:#000000"
           id="tspan4216"
           y="484.67883"
           x="370.64749"
           sodipodi:role="line">101</tspan><tspan
           style="font-weight:normal;font-size:25.90997314px;stroke:#000000"
           id="tspan4218"
           y="517.06628"
           x="370.64749"
           sodipodi:role="line">10101</tspan><tspan
           style="font-weight:normal;font-size:25.90997314px;stroke:#000000"
           id="tspan4222"
           y="549.4538"
           x="370.64749"
           sodipodi:role="line">1010101</tspan><tspan
           id="tspan4324"
           style="font-weight:normal;font-size:25.90997314px;stroke:#000000"
           y="581.84125"
           x="370.64749"
           sodipodi:role="line">101010101</tspan></text>
      <path
         transform="scale(-1,1)"
         sodipodi:open="true"
         d="m -513.05075,359.39856 a 219.06589,219.06589 0 0 1 233.39408,-30.72691 219.06589,219.06589 0 0 1 126.48464,198.54112"
         sodipodi:end="0"
         sodipodi:start="4.0142573"
         sodipodi:ry="219.06589"
         sodipodi:rx="219.06589"
         sodipodi:cy="527.21277"
         sodipodi:cx="-372.23792"
         sodipodi:type="arc"
         id="path4253-6"
         style="opacity:1;fill:none;fill-opacity:1;stroke:#004d00;stroke-width:32.56028748;stroke-linecap:butt;stroke-linejoin:round;stroke-miterlimit:4;stroke-dasharray:none;stroke-dashoffset:0;stroke-opacity:1" />
      <path
         transform="matrix(-0.21791367,-0.07754276,-0.07754276,0.21791367,61.452746,228.59803)"
         inkscape:transform-center-y="-10.921039"
         inkscape:transform-center-x="-7.6740824"
         d="m -1989.5147,-12.419184 -238.3274,-30.388409 145.4809,-191.203397 z"
         inkscape:randomized="0"
         inkscape:rounded="0"
         inkscape:flatsided="true"
         sodipodi:arg2="1.697619"
         sodipodi:arg1="0.65042141"
         sodipodi:r2="41.370705"
         sodipodi:r1="138.71243"
         sodipodi:cy="-96.41259"
         sodipodi:cx="-2099.906"
         sodipodi:sides="3"
         id="path4270-3"
         style="opacity:1;fill:#004d00;fill-opacity:1;stroke:#004d00;stroke-width:29.20029449;stroke-linecap:butt;stroke-linejoin:miter;stroke-miterlimit:4;stroke-dasharray:none;stroke-dashoffset:0;stroke-opacity:1"
         sodipodi:type="star" />
      <path
         transform="matrix(0.99996306,0.00859526,0.00859526,-0.99996306,0,0)"
         sodipodi:open="true"
         d="m 235.55246,-689.74738 a 219.06589,219.06589 0 0 1 233.39408,-30.72691 219.06589,219.06589 0 0 1 126.48464,198.54112"
         sodipodi:end="0"
         sodipodi:start="4.0142573"
         sodipodi:ry="219.06589"
         sodipodi:rx="219.06589"
         sodipodi:cy="-521.93317"
         sodipodi:cx="376.3653"
         sodipodi:type="arc"
         id="path4253-3-4"
         style="opacity:1;fill:none;fill-opacity:1;stroke:#004d00;stroke-width:32.56028748;stroke-linecap:butt;stroke-linejoin:round;stroke-miterlimit:4;stroke-dasharray:none;stroke-dashoffset:0;stroke-opacity:1" />
      <path
         transform="matrix(0.21723912,0.07941292,0.07941292,-0.21723912,680.07224,826.42385)"
         inkscape:transform-center-y="-10.921039"
         inkscape:transform-center-x="-7.6740824"
         d="m -1989.5147,-12.419184 -238.3274,-30.388409 145.4809,-191.203397 z"
         inkscape:randomized="0"
         inkscape:rounded="0"
         inkscape:flatsided="true"
         sodipodi:arg2="1.697619"
         sodipodi:arg1="0.65042141"
         sodipodi:r2="41.370705"
         sodipodi:r1="138.71243"
         sodipodi:cy="-96.41259"
         sodipodi:cx="-2099.906"
         sodipodi:sides="3"
         id="path4270-8-3"
         style="opacity:1;fill:#004d00;fill-opacity:1;stroke:#004d00;stroke-width:29.19988632;stroke-linecap:butt;stroke-linejoin:miter;stroke-miterlimit:4;stroke-dasharray:none;stroke-dashoffset:0;stroke-opacity:1"
         sodipodi:type="star" />
      <g
         id="g3459">
        <rect
           style="opacity:1;fill:#ffffff;fill-opacity:1;stroke:#000000;stroke-width:6.1359539;stroke-linecap:butt;stroke-linejoin:round;stroke-miterlimit:4;stroke-dasharray:none;stroke-dashoffset:0;stroke-opacity:1"
           id="rect4344"
           width="81.469582"
           height="48.354218"
           x="113.23844"
           y="541.47119"
           rx="8.5882025" />
        <rect
           style="opacity:1;fill:#000000;fill-opacity:1;stroke:#000000;stroke-width:4.07481384;stroke-linecap:butt;stroke-linejoin:miter;stroke-miterlimit:4;stroke-dasharray:none;stroke-dashoffset:0;stroke-opacity:1"
           id="rect4348"
           width="16.428102"
           height="15.962012"
           x="144.41772"
           y="594.00098"
           rx="0" />
        <path
           style="fill:#ffffff;fill-rule:evenodd;stroke:#000000;stroke-width:3.03474545;stroke-linecap:butt;stroke-linejoin:miter;stroke-miterlimit:4;stroke-dasharray:none;stroke-opacity:1"
           d="m 104.05183,612.96425 91.39271,0 17.65167,25.9548 -92.21755,0 z"
           id="path4350"
           inkscape:connector-curvature="0" />
        <path
           style="fill:#000000;fill-rule:evenodd;stroke:#000000;stroke-width:0.44350976;stroke-linecap:butt;stroke-linejoin:miter;stroke-miterlimit:4;stroke-dasharray:none;stroke-opacity:1"
           d="m 114.25626,617.60598 13.35646,0 2.57973,3.79313 -13.47705,0 z"
           id="path4350-1"
           inkscape:connector-curvature="0" />
        <path
           style="fill:#000000;fill-rule:evenodd;stroke:#000000;stroke-width:0.44350976;stroke-linecap:butt;stroke-linejoin:miter;stroke-miterlimit:4;stroke-dasharray:none;stroke-opacity:1"
           d="m 132.11799,617.27148 13.35647,0 2.57972,3.79314 -13.47704,0 z"
           id="path4350-1-5"
           inkscape:connector-curvature="0" />
        <path
           style="fill:#000000;fill-rule:evenodd;stroke:#000000;stroke-width:0.44350976;stroke-linecap:butt;stroke-linejoin:miter;stroke-miterlimit:4;stroke-dasharray:none;stroke-opacity:1"
           d="m 119.07253,625.63394 13.35647,0 2.57972,3.79314 -13.47704,0 z"
           id="path4350-1-7"
           inkscape:connector-curvature="0" />
        <path
           style="fill:#000000;fill-rule:evenodd;stroke:#000000;stroke-width:0.44350976;stroke-linecap:butt;stroke-linejoin:miter;stroke-miterlimit:4;stroke-dasharray:none;stroke-opacity:1"
           d="m 137.13549,625.96844 13.35647,0 2.57972,3.79314 -13.47704,0 z"
           id="path4350-1-4"
           inkscape:connector-curvature="0" />
        <path
           style="fill:#000000;fill-rule:evenodd;stroke:#000000;stroke-width:0.44350976;stroke-linecap:butt;stroke-linejoin:miter;stroke-miterlimit:4;stroke-dasharray:none;stroke-opacity:1"
           d="m 155.8674,625.29945 13.35646,0 2.57973,3.79313 -13.47705,0 z"
           id="path4350-1-0"
           inkscape:connector-curvature="0" />
        <path
           style="fill:#000000;fill-rule:evenodd;stroke:#000000;stroke-width:0.44350976;stroke-linecap:butt;stroke-linejoin:miter;stroke-miterlimit:4;stroke-dasharray:none;stroke-opacity:1"
           d="m 152.52243,618.27498 13.35646,0 2.57972,3.79314 -13.47704,0 z"
           id="path4350-1-50"
           inkscape:connector-curvature="0" />
        <path
           style="fill:#000000;fill-rule:evenodd;stroke:#000000;stroke-width:0.44350976;stroke-linecap:butt;stroke-linejoin:miter;stroke-miterlimit:4;stroke-dasharray:none;stroke-opacity:1"
           d="m 171.92331,616.26798 13.35648,0 2.57972,3.79314 -13.47705,0 z"
           id="path4350-1-1"
           inkscape:connector-curvature="0" />
        <path
           style="fill:#000000;fill-rule:evenodd;stroke:#000000;stroke-width:0.44350976;stroke-linecap:butt;stroke-linejoin:miter;stroke-miterlimit:4;stroke-dasharray:none;stroke-opacity:1"
           d="m 173.5958,624.63045 13.35649,0 2.57972,3.79314 -13.47706,0 z"
           id="path4350-1-2"
           inkscape:connector-curvature="0" />
        <path
           style="fill:#000000;fill-rule:evenodd;stroke:#000000;stroke-width:0.44350976;stroke-linecap:butt;stroke-linejoin:miter;stroke-miterlimit:4;stroke-dasharray:none;stroke-opacity:1"
           d="m 186.97576,630.98592 13.35647,0 2.57972,3.79314 -13.47704,0 z"
           id="path4350-1-8"
           inkscape:connector-curvature="0" />
        <path
           style="fill:none;fill-rule:evenodd;stroke:#000000;stroke-width:2.33372831;stroke-linecap:butt;stroke-linejoin:miter;stroke-miterlimit:4;stroke-dasharray:none;stroke-opacity:1"
           d="m 198.61223,617.78943 c 0.2831,-0.0445 0.56351,-0.10139 0.84933,-0.13347 0.23526,-0.0264 0.81071,0 1.01919,0 0.5096,0 1.0192,0 1.52879,0 0.19663,0 0.69768,-0.0298 0.84933,0 0.12283,0.0241 0.21962,0.10201 0.33973,0.13347 0.0537,0.014 0.11922,-0.0199 0.16987,0 0.0716,0.0281 0.0982,0.10534 0.16986,0.13347 0.0506,0.0199 0.11325,0 0.16987,0 0.11324,0.0445 0.23439,0.0783 0.33973,0.13348 0.13325,0.0698 0.20648,0.19714 0.33973,0.26694 0.10535,0.0552 0.23439,0.0783 0.33973,0.13348 0.13326,0.0698 0.1878,0.22715 0.33973,0.26694 0.29169,0.0764 0.35026,-0.11694 0.5096,0.13348 0.0253,0.0398 -0.0253,0.0937 0,0.13347 0.0358,0.0563 0.13406,0.0772 0.16987,0.13347 0.0253,0.0398 -0.0137,0.0903 0,0.13347 0.0435,0.1365 0.0898,0.27458 0.16987,0.40042 0.0836,0.13135 0.59588,0.40255 0.67946,0.5339 0.0253,0.0398 -0.0253,0.0937 0,0.13347 0.0358,0.0563 0.13405,0.0772 0.16986,0.13347 0.0253,0.0398 -0.0179,0.0913 0,0.13348 0.0401,0.0944 0.12983,0.17256 0.16987,0.26694 0.0179,0.0422 -0.0253,0.0937 0,0.13348 0.10192,0.16016 0.40768,0.24024 0.5096,0.40041 0.0253,0.0398 -0.0253,0.0937 0,0.13348 0.0454,0.0713 0.42017,0.33015 0.50959,0.40041 0.16987,0.13348 0.33974,0.26695 0.5096,0.40042 0.0566,0.0445 0.0982,0.10534 0.16987,0.13348 0.10128,0.0398 0.23844,-0.0398 0.33973,0 0.14324,0.0563 0.1878,0.22715 0.33973,0.26694 0.10743,0.0281 0.23844,-0.0398 0.33973,0 0.14324,0.0563 0.20648,0.19715 0.33973,0.26695 0.0471,0.0247 0.11615,-0.014 0.16987,0 0.12011,0.0315 0.21961,0.10201 0.33973,0.13347 0.10743,0.0282 0.2323,-0.0281 0.33973,0 0.12011,0.0315 0.21962,0.10201 0.33973,0.13348 0.0537,0.014 0.11325,0 0.16987,0 0.23019,0 1.07666,-0.0294 1.18906,0 0.74982,0.19639 -0.61715,0.13347 0.50959,0.13347 0.15999,0 0.7527,-0.0253 0.84933,0 0.15194,0.0398 0.19649,0.21067 0.33973,0.26695 0.0504,0.0198 0.8549,0 1.0192,0 0.28311,0 0.56622,0 0.84933,0 0.11324,0 0.22649,0 0.33973,0 0.0566,0 0.11922,0.0199 0.16987,0 0.0716,-0.0281 0.0982,-0.10534 0.16986,-0.13348 0.0836,-0.0328 0.85758,0.0254 1.0192,0 0.17557,-0.0276 0.33588,-0.0993 0.50959,-0.13347 0.21247,-0.0418 0.4715,0.0545 0.67947,0 0.076,-0.0199 0.0982,-0.10534 0.16986,-0.13347 0.0507,-0.0199 0.11325,0 0.16987,0 0.11324,-0.089 0.20648,-0.19715 0.33973,-0.26695 0.0471,-0.0247 0.11324,0 0.16987,0 0.0566,0 0.11324,0 0.16986,0 0.60275,0 0.88555,-0.10501 1.35893,0.26695"
           id="path4424"
           inkscape:connector-curvature="0" />
        <path
           style="fill:none;fill-rule:evenodd;stroke:#000000;stroke-width:2.44438386;stroke-linecap:butt;stroke-linejoin:miter;stroke-miterlimit:4;stroke-dasharray:none;stroke-opacity:1"
           d="m 221.59357,623.26589 c -2.07766,0 -0.25912,-0.18586 -0.94628,0.15772 -0.047,0.0235 -0.10784,-0.0166 -0.15771,0 -0.11152,0.0371 -0.20391,0.12054 -0.31543,0.15771 -0.10848,0.0362 -0.38009,-0.0465 -0.47314,0 -0.0665,0.0332 -0.0872,0.1342 -0.15771,0.15771 -0.0998,0.0332 -0.21029,0 -0.31543,0 -0.0526,0 -0.11069,-0.0235 -0.15771,0 -0.0665,0.0332 -0.0912,0.12447 -0.15772,0.15772 -0.047,0.0235 -0.10514,0 -0.15771,0 -0.10514,0.10514 -0.19171,0.23295 -0.31543,0.31543 -0.0438,0.0292 -0.10784,-0.0166 -0.15771,0 -0.11152,0.0371 -0.20139,0.1292 -0.31543,0.15771 -0.102,0.0255 -0.21028,0 -0.31542,0 -0.0526,0 -0.1107,-0.0235 -0.15772,0 -0.13299,0.0665 -0.18243,0.24893 -0.31542,0.31542 -0.1487,0.0744 -0.34015,0.058 -0.47315,0.15772 -0.38418,0.28814 0.0476,0.29162 -0.31542,0.47314 -0.14869,0.0743 -0.33059,0.0722 -0.47314,0.15771 -0.19126,0.11475 -0.31543,0.31543 -0.47314,0.47314 -0.0526,0.0526 -0.10515,0.10514 -0.15772,0.15772 -0.0526,0.0526 -0.12446,0.0912 -0.15771,0.15771 -0.047,0.094 0.047,0.22139 0,0.31542 -0.19488,0.38978 -0.15771,-0.0544 -0.15771,0.31544 0,0.12893 -0.0266,1.02406 0,1.10399 0.0235,0.0705 0.12446,0.0912 0.15771,0.15771 0.047,0.094 -0.047,0.22138 0,0.31543 0.0332,0.0665 0.12446,0.0912 0.15771,0.15771 0.0235,0.047 -0.0235,0.11069 0,0.15771 0.0332,0.0665 0.12447,0.0912 0.15772,0.15772 0.0235,0.047 -0.0235,0.11069 0,0.15771 0.0332,0.0665 0.1342,0.0872 0.15771,0.15772 0.22761,0.68283 -0.3015,-0.058 0.15771,0.63085 0.15472,0.23207 0.47614,0.39878 0.63086,0.63085 0.096,0.14407 0.13462,0.38274 0.31542,0.47315 0.047,0.0235 0.11069,-0.0235 0.15772,0 0.0665,0.0332 0.10514,0.10514 0.15771,0.15771 0.0526,0.0526 0.10514,0.10514 0.15772,0.15771 0.15771,0.15771 0.31542,0.31543 0.47314,0.47314 0.10514,0.10514 0.1917,0.23295 0.31542,0.31543 0.0978,0.0652 0.21762,0.0925 0.31543,0.15771 0.12372,0.0825 0.18243,0.24893 0.31542,0.31543 0.1487,0.0743 0.32445,0.0834 0.47315,0.15771 0.18925,0.0946 0.28388,0.37851 0.47314,0.47314 0.047,0.0235 0.11069,-0.0235 0.15771,0 0.15519,0.0776 0.47566,0.55326 0.63086,0.63086 0.047,0.0235 0.11069,-0.0235 0.15771,0 0.13299,0.0665 0.1917,0.23294 0.31542,0.31542 0.0978,0.0652 0.21762,0.0925 0.31543,0.15771 0.14357,0.0957 0.33335,0.40325 0.47314,0.47315 0.047,0.0235 0.10784,-0.0166 0.15772,0 0.11152,0.0372 0.2039,0.12054 0.31542,0.15771 0.0998,0.0332 0.21568,-0.0332 0.31543,0 1.14238,0.3808 -0.24865,-0.0455 0.47314,0.31543 0.047,0.0235 0.11069,-0.0235 0.15771,0 0.0665,0.0332 0.0912,0.12446 0.15772,0.15771 0.0991,0.0496 0.53172,-0.0496 0.63085,0 0.0665,0.0332 0.10514,0.10514 0.15771,0.15771 0.15772,0 0.31849,-0.0309 0.47315,0 0.11526,0.0231 0.2039,0.12054 0.31542,0.15772 0.0499,0.0166 0.11069,-0.0235 0.15771,0 0.16954,0.0848 0.30361,0.23065 0.47315,0.31542 0.094,0.047 0.21342,-0.0255 0.31542,0 0.16128,0.0403 0.31013,0.12511 0.47314,0.15772 0.12912,0.0258 0.70766,-0.0405 0.78857,0 0.0665,0.0332 0.0912,0.12446 0.15771,0.15771 0.0479,0.024 0.52195,0 0.63086,0 0.47314,0 0.94628,0 1.41942,0 0.26286,0 0.52571,0 0.78857,0 0.0526,0 0.10514,0 0.15771,0 0.0526,0 0.11069,0.0235 0.15771,0 0.0665,-0.0332 0.10514,-0.10514 0.15771,-0.15771 0.0526,-0.0526 0.12447,-0.0912 0.15772,-0.15772 0.0235,-0.047 -0.0235,-0.11069 0,-0.15771 0.0332,-0.0665 0.10514,-0.10514 0.15771,-0.15771 0.12319,-0.12319 0.38242,-0.33705 0.47314,-0.47314 0.31312,-0.14214 0.0608,-0.43698 0.15772,-0.63085 0.0665,-0.133 0.23294,-0.19171 0.31542,-0.31544 0.0292,-0.0438 -0.0235,-0.11069 0,-0.15771 0.0332,-0.0665 0.10515,-0.10514 0.15772,-0.15771 0,-0.10514 -0.0332,-0.21568 0,-0.31543 0.0235,-0.0705 0.12446,-0.0912 0.15771,-0.15771 0.0235,-0.047 0,-0.10514 0,-0.15771 0,-0.0526 0,-0.10515 0,-0.15772 0,-0.18408 -0.0308,-0.82323 0,-0.94628 0.0285,-0.11404 0.12054,-0.2039 0.15772,-0.31543 0.0166,-0.0499 0,-0.10514 0,-0.15771 0,-0.10514 0,-0.21029 0,-0.31543 0,-0.26285 0,-0.52571 0,-0.78856 0,-0.10514 0.0332,-0.21568 0,-0.31543 -0.0372,-0.11152 -0.12054,-0.20391 -0.15772,-0.31543 -0.0332,-0.0997 0.047,-0.22138 0,-0.31542 -0.0946,-0.18926 -0.37851,-0.28389 -0.47314,-0.47314 -0.0235,-0.047 0.0166,-0.10785 0,-0.15772 -0.0743,-0.22304 -0.24108,-0.40781 -0.31543,-0.63085 -0.15649,-0.46949 0.37345,0.3236 -0.15771,-0.47314 -0.0825,-0.12372 -0.24893,-0.18243 -0.31543,-0.31543 -0.0235,-0.047 0.0235,-0.11069 0,-0.15771 -0.0332,-0.0665 -0.10514,-0.10515 -0.15771,-0.15772 -0.0526,-0.0526 -0.10514,-0.10514 -0.15772,-0.15771 -0.26285,-0.26285 -0.52571,-0.52571 -0.78856,-0.78857 -0.15771,-0.15771 -0.31543,-0.31542 -0.47314,-0.47314 -0.10514,-0.10514 -0.19171,-0.23294 -0.31543,-0.31542 -0.0794,-0.34747 -0.32444,-0.0834 -0.47314,-0.15772 -0.0665,-0.0332 -0.10514,-0.10514 -0.15771,-0.15771 -0.10514,-0.10514 -0.19171,-0.23295 -0.31543,-0.31543 -0.0438,-0.0292 -0.10784,0.0166 -0.15771,0 -0.11153,-0.0372 -0.20139,-0.1292 -0.31543,-0.15771 -0.102,-0.0255 -0.21028,0 -0.31543,0 -0.0526,0 -0.11069,0.0235 -0.15771,0 -0.0665,-0.0332 -0.0912,-0.12446 -0.15771,-0.15772 -0.047,-0.0235 -0.10784,0.0166 -0.15772,0 -0.11152,-0.0371 -0.20391,-0.12053 -0.31543,-0.15771 -0.0499,-0.0166 -0.10784,0.0166 -0.15771,0 -1.14238,-0.38079 0.24866,0.0455 -0.47314,-0.31542 -0.047,-0.0235 -0.11069,0.0235 -0.15771,0 -0.0665,-0.0332 -0.0912,-0.12447 -0.15771,-0.15772 -0.047,-0.0235 -0.1107,0.0235 -0.15772,0 -0.0665,-0.0332 -0.0872,-0.1342 -0.15771,-0.15771 -0.0998,-0.0332 -0.21029,0 -0.31543,0 -0.0526,0 -0.11069,0.0235 -0.15771,0 -0.0665,-0.0332 -0.10514,-0.10515 -0.15771,-0.15772 -0.10515,-0.10514 -0.19171,-0.23294 -0.31543,-0.31542 -0.0875,-0.0583 -0.22139,0.047 -0.31543,0 -0.0665,-0.0332 -0.0856,-0.13968 -0.15771,-0.15772 -0.15301,-0.0383 -0.31849,0.0309 -0.47314,0 -0.11528,-0.0231 -0.20391,-0.12054 -0.31543,-0.15771 -0.0499,-0.0166 -0.10514,0 -0.15771,0 -0.55089,0 -0.44718,-0.006 -1.104,0.15771 z"
           id="path4426"
           inkscape:connector-curvature="0" />
        <path
           style="fill:none;fill-rule:evenodd;stroke:#000000;stroke-width:2.04125404;stroke-linecap:butt;stroke-linejoin:miter;stroke-miterlimit:4;stroke-dasharray:none;stroke-opacity:1"
           d="m 218.71394,631.06284 c 0.1317,-0.1756 0.28217,-0.33859 0.3951,-0.52681 0.0234,-0.0391 0,-0.43538 0,-0.52681 0,-0.59955 -0.0621,-0.008 0.13171,-0.39511 0.0388,-0.0777 -0.038,-0.71429 0,-0.79023 0.0555,-0.11105 0.19452,-0.16008 0.26341,-0.2634 0.0244,-0.0366 -0.0139,-0.0901 0,-0.1317 0.031,-0.0931 0.10065,-0.17028 0.1317,-0.26341 0.0139,-0.0417 -0.0197,-0.0924 0,-0.1317 0.0277,-0.0555 0.10394,-0.0762 0.1317,-0.1317 0.0393,-0.0785 -0.0393,-0.18488 0,-0.26341 0.0277,-0.0555 0.10394,-0.0762 0.13171,-0.13171 0.0197,-0.0393 -0.0197,-0.0924 0,-0.1317 0.0555,-0.11106 0.20787,-0.15234 0.2634,-0.26341 0.0197,-0.0393 -0.0196,-0.0924 0,-0.1317 0.0555,-0.11106 0.19453,-0.16009 0.26341,-0.2634 0.0544,-0.0817 0.0728,-0.18488 0.1317,-0.26341 0.0745,-0.0993 0.1756,-0.17561 0.26341,-0.26341 0.0439,-0.0439 0.0762,-0.10393 0.1317,-0.1317 0.0393,-0.0197 0.0878,0 0.13171,0 0.0878,0 0.1801,0.0277 0.2634,0 0.0589,-0.0197 0.0762,-0.10394 0.1317,-0.1317 0.0393,-0.0197 0.09,0.0139 0.1317,0 0.95399,-0.318 -0.20764,0.038 0.39511,-0.26341 0.0777,-0.0388 0.30453,0.0302 0.39511,0 0.0931,-0.031 0.17029,-0.10066 0.26341,-0.1317 0.0416,-0.0139 0.0901,0.0139 0.13171,0 0.0931,-0.031 0.16817,-0.10789 0.26341,-0.13171 0.0852,-0.0214 0.17559,0 0.2634,0 0.26341,0 0.52682,0 0.79021,0 0.0878,0 0.17823,0.0213 0.26341,0 0.13469,-0.0336 0.26043,-0.098 0.39512,-0.1317 0.0852,-0.0213 0.1756,0 0.2634,0 0.1317,0 0.26341,0 0.39511,0 0.52681,0 1.05363,0 1.58044,0"
           id="path4428"
           inkscape:connector-curvature="0" />
        <path
           style="opacity:1;fill:#ffffff;fill-opacity:1;stroke:#000000;stroke-width:3.52739334;stroke-linecap:butt;stroke-linejoin:miter;stroke-miterlimit:4;stroke-dasharray:none;stroke-dashoffset:0;stroke-opacity:1"
           id="path4430"
           sodipodi:type="arc"
           sodipodi:cx="154.56308"
           sodipodi:cy="584.57391"
           sodipodi:rx="24.986553"
           sodipodi:ry="11.047038"
           sodipodi:start="3.1415927"
           sodipodi:end="0"
           d="m 129.57653,584.57391 a 24.986553,11.047038 0 0 1 24.98655,-11.04703 24.986553,11.047038 0 0 1 24.98655,11.04703"
           sodipodi:open="true" />
        <path
           style="fill:none;fill-rule:evenodd;stroke:#000000;stroke-width:3.60376;stroke-linecap:butt;stroke-linejoin:miter;stroke-miterlimit:4;stroke-dasharray:none;stroke-opacity:1"
           d="m 121.5096,566.54763 17.73946,-15.84726"
           id="path4447"
           inkscape:connector-curvature="0" />
        <path
           style="fill:none;fill-rule:evenodd;stroke:#000000;stroke-width:5.18435669;stroke-linecap:butt;stroke-linejoin:miter;stroke-miterlimit:4;stroke-dasharray:none;stroke-opacity:1"
           d="m 155.09635,557.79616 c 10.1922,-10.64794 18.5735,-7.71385 26.2544,0.47305"
           id="path4451"
           inkscape:connector-curvature="0"
           sodipodi:nodetypes="cc" />
        <path
           style="fill:none;fill-rule:evenodd;stroke:#000000;stroke-width:3.60376;stroke-linecap:butt;stroke-linejoin:miter;stroke-miterlimit:4;stroke-dasharray:none;stroke-opacity:1"
           d="m 121.03658,549.28122 c 15.61073,16.08377 14.90115,16.08377 14.90115,16.08377"
           id="path4449"
           inkscape:connector-curvature="0" />
      </g>
      <text
         sodipodi:linespacing="125%"
         id="text4328"
         y="271.61703"
         x="371.81287"
         style="font-style:normal;font-weight:normal;font-size:40px;line-height:125%;font-family:sans-serif;text-align:center;letter-spacing:0px;word-spacing:0px;text-anchor:middle;fill:#000000;fill-opacity:1;stroke:none;stroke-width:1px;stroke-linecap:butt;stroke-linejoin:miter;stroke-opacity:1"
         xml:space="preserve"><tspan
           style="font-weight:bold"
           id="tspan4332"
           y="271.61703"
           x="371.81287"
           sodipodi:role="line">Reciclagem</tspan></text>
      <text
         sodipodi:linespacing="125%"
         id="text4328-2"
         y="804.89581"
         x="371.91052"
         style="font-style:normal;font-weight:normal;font-size:40px;line-height:125%;font-family:sans-serif;text-align:center;letter-spacing:0px;word-spacing:0px;text-anchor:middle;fill:#000000;fill-opacity:1;stroke:none;stroke-width:1px;stroke-linecap:butt;stroke-linejoin:miter;stroke-opacity:1"
         xml:space="preserve"><tspan
           style="font-weight:bold"
           id="tspan4332-9"
           y="804.89581"
           x="371.91052"
           sodipodi:role="line">Digital</tspan></text>
    </g>
  </g>
</svg>
